<mxfile host="app.diagrams.net" agent="Mozilla/5.0 (Macintosh; Intel Mac OS X 10_15_7) AppleWebKit/537.36 (KHTML, like Gecko) Chrome/131.0.0.0 Safari/537.36" version="25.0.1">
  <diagram name="Page-1" id="VT4z8mLNr0PT1XjozlPn">
    <mxGraphModel dx="1434" dy="761" grid="1" gridSize="10" guides="1" tooltips="1" connect="1" arrows="1" fold="1" page="1" pageScale="1" pageWidth="850" pageHeight="1100" math="0" shadow="0">
      <root>
        <mxCell id="0" />
        <mxCell id="1" parent="0" />
        <mxCell id="I0Hr2agrUQy3wI3fVDXH-42" style="edgeStyle=orthogonalEdgeStyle;rounded=0;orthogonalLoop=1;jettySize=auto;html=1;" parent="1" source="I0Hr2agrUQy3wI3fVDXH-2" edge="1">
          <mxGeometry relative="1" as="geometry">
            <mxPoint x="230" y="205.5" as="targetPoint" />
          </mxGeometry>
        </mxCell>
        <mxCell id="I0Hr2agrUQy3wI3fVDXH-2" value="&lt;b&gt;Users&lt;/b&gt;&lt;div&gt;&lt;br&gt;&lt;/div&gt;" style="outlineConnect=0;gradientColor=none;fontColor=#545B64;strokeColor=none;fillColor=#879196;dashed=0;verticalLabelPosition=bottom;verticalAlign=top;align=center;html=1;fontSize=12;fontStyle=0;aspect=fixed;shape=mxgraph.aws4.illustration_desktop;pointerEvents=1;labelBackgroundColor=#ffffff;" parent="1" vertex="1">
          <mxGeometry x="20" y="160" width="100" height="91" as="geometry" />
        </mxCell>
        <mxCell id="I0Hr2agrUQy3wI3fVDXH-7" style="edgeStyle=orthogonalEdgeStyle;rounded=0;orthogonalLoop=1;jettySize=auto;html=1;" parent="1" source="I0Hr2agrUQy3wI3fVDXH-8" target="I0Hr2agrUQy3wI3fVDXH-9" edge="1">
          <mxGeometry relative="1" as="geometry">
            <mxPoint x="920" y="190" as="targetPoint" />
            <Array as="points">
              <mxPoint x="280" y="62" />
            </Array>
          </mxGeometry>
        </mxCell>
        <mxCell id="I0Hr2agrUQy3wI3fVDXH-8" value="&lt;b&gt;Amazon API&lt;br&gt;Gateway&lt;/b&gt;" style="outlineConnect=0;fontColor=#232F3E;gradientColor=#945DF2;gradientDirection=north;fillColor=#5A30B5;strokeColor=#ffffff;dashed=0;verticalLabelPosition=bottom;verticalAlign=top;align=center;html=1;fontSize=12;fontStyle=0;aspect=fixed;shape=mxgraph.aws4.resourceIcon;resIcon=mxgraph.aws4.api_gateway;labelBackgroundColor=#ffffff;" parent="1" vertex="1">
          <mxGeometry x="240" y="160" width="78" height="78" as="geometry" />
        </mxCell>
        <mxCell id="I0Hr2agrUQy3wI3fVDXH-9" value="&lt;b&gt;IAM Roles&lt;/b&gt;" style="outlineConnect=0;fontColor=#232F3E;gradientColor=none;fillColor=#C7131F;strokeColor=none;dashed=0;verticalLabelPosition=bottom;verticalAlign=top;align=center;html=1;fontSize=12;fontStyle=0;aspect=fixed;pointerEvents=1;shape=mxgraph.aws4.role;labelBackgroundColor=#ffffff;" parent="1" vertex="1">
          <mxGeometry x="700.0000000000002" y="30" width="78" height="44" as="geometry" />
        </mxCell>
        <mxCell id="I0Hr2agrUQy3wI3fVDXH-10" value="&lt;b&gt;ELB&lt;/b&gt;" style="sketch=0;points=[[0,0,0],[0.25,0,0],[0.5,0,0],[0.75,0,0],[1,0,0],[0,1,0],[0.25,1,0],[0.5,1,0],[0.75,1,0],[1,1,0],[0,0.25,0],[0,0.5,0],[0,0.75,0],[1,0.25,0],[1,0.5,0],[1,0.75,0]];outlineConnect=0;fontColor=#232F3E;fillColor=#8C4FFF;strokeColor=#ffffff;dashed=0;verticalLabelPosition=bottom;verticalAlign=top;align=center;html=1;fontSize=12;fontStyle=0;aspect=fixed;shape=mxgraph.aws4.resourceIcon;resIcon=mxgraph.aws4.elastic_load_balancing;" parent="1" vertex="1">
          <mxGeometry x="450" y="160" width="78" height="78" as="geometry" />
        </mxCell>
        <mxCell id="I0Hr2agrUQy3wI3fVDXH-11" value="&lt;b&gt;VPC&lt;/b&gt;" style="sketch=0;outlineConnect=0;fontColor=#232F3E;gradientColor=none;fillColor=#8C4FFF;strokeColor=none;dashed=0;verticalLabelPosition=bottom;verticalAlign=top;align=center;html=1;fontSize=12;fontStyle=0;aspect=fixed;pointerEvents=1;shape=mxgraph.aws4.vpc_virtual_private_cloud_vpc;" parent="1" vertex="1">
          <mxGeometry x="980" y="74" width="78" height="76" as="geometry" />
        </mxCell>
        <mxCell id="I0Hr2agrUQy3wI3fVDXH-13" style="edgeStyle=orthogonalEdgeStyle;rounded=0;orthogonalLoop=1;jettySize=auto;html=1;" parent="1" source="I0Hr2agrUQy3wI3fVDXH-16" target="I0Hr2agrUQy3wI3fVDXH-9" edge="1">
          <mxGeometry relative="1" as="geometry" />
        </mxCell>
        <mxCell id="I0Hr2agrUQy3wI3fVDXH-14" value="&lt;b&gt;&lt;font style=&quot;font-size: 12px;&quot;&gt;execution role&lt;/font&gt;&lt;/b&gt;" style="edgeLabel;html=1;align=center;verticalAlign=middle;resizable=0;points=[];" parent="I0Hr2agrUQy3wI3fVDXH-13" vertex="1" connectable="0">
          <mxGeometry x="-0.0036" relative="1" as="geometry">
            <mxPoint x="21" y="11" as="offset" />
          </mxGeometry>
        </mxCell>
        <mxCell id="I0Hr2agrUQy3wI3fVDXH-15" style="edgeStyle=orthogonalEdgeStyle;rounded=0;orthogonalLoop=1;jettySize=auto;html=1;" parent="1" source="I0Hr2agrUQy3wI3fVDXH-16" target="I0Hr2agrUQy3wI3fVDXH-11" edge="1">
          <mxGeometry relative="1" as="geometry">
            <Array as="points">
              <mxPoint x="739" y="110" />
            </Array>
          </mxGeometry>
        </mxCell>
        <mxCell id="I0Hr2agrUQy3wI3fVDXH-16" value="&lt;b&gt;Kubernetes&lt;/b&gt;" style="sketch=0;points=[[0,0,0],[0.25,0,0],[0.5,0,0],[0.75,0,0],[1,0,0],[0,1,0],[0.25,1,0],[0.5,1,0],[0.75,1,0],[1,1,0],[0,0.25,0],[0,0.5,0],[0,0.75,0],[1,0.25,0],[1,0.5,0],[1,0.75,0]];outlineConnect=0;fontColor=#232F3E;fillColor=#ED7100;strokeColor=#ffffff;dashed=0;verticalLabelPosition=bottom;verticalAlign=top;align=center;html=1;fontSize=12;fontStyle=0;aspect=fixed;shape=mxgraph.aws4.resourceIcon;resIcon=mxgraph.aws4.eks;" parent="1" vertex="1">
          <mxGeometry x="700" y="160" width="78" height="78" as="geometry" />
        </mxCell>
        <mxCell id="I0Hr2agrUQy3wI3fVDXH-17" style="edgeStyle=orthogonalEdgeStyle;rounded=0;orthogonalLoop=1;jettySize=auto;html=1;entryX=0;entryY=0.5;entryDx=0;entryDy=0;entryPerimeter=0;" parent="1" source="I0Hr2agrUQy3wI3fVDXH-8" target="I0Hr2agrUQy3wI3fVDXH-10" edge="1">
          <mxGeometry relative="1" as="geometry" />
        </mxCell>
        <mxCell id="I0Hr2agrUQy3wI3fVDXH-18" style="edgeStyle=orthogonalEdgeStyle;rounded=0;orthogonalLoop=1;jettySize=auto;html=1;entryX=0;entryY=0.5;entryDx=0;entryDy=0;entryPerimeter=0;" parent="1" source="I0Hr2agrUQy3wI3fVDXH-10" target="I0Hr2agrUQy3wI3fVDXH-16" edge="1">
          <mxGeometry relative="1" as="geometry" />
        </mxCell>
        <mxCell id="I0Hr2agrUQy3wI3fVDXH-19" value="" style="shape=image;verticalLabelPosition=bottom;labelBackgroundColor=default;verticalAlign=top;aspect=fixed;imageAspect=0;image=data:image/png,iVBORw0KGgoAAAANSUhEUgAAAL0AAAB2CAYAAACd+JJHAAABXmlDQ1BJQ0MgUHJvZmlsZQAAKJFtkD9Lw2AQxp/WloIGKihS0KGDOFUpaQfX/hEVOpRqQd3SNKZCmr4kqeJSHHQv6OImcRE/gC4d/AYKgqCIOLo5iAXREu9t1LTqHcfz4+HuOA7wCxJjWgBAVbeMwnw6urK6Fg09YQjjGKEMS7LJUvl8jlrwrf3RvoGP6/U039UQ/Wi0EpuR59tg9s0+/dvfF4NlxZRJP6hEmRkW4IsT57csxnmHeNSgo4gPOKsun3Auudzq9iwXMsRXxMNyRSoTPxLHSj2+2sNVrS5/3cCvFxS9uEQ6RjWBLOaQo4yiCBFJKhEL9KP/Z5LdmQxqYNiGgQ2oqMCi6RQ5DBoU4kXokDGDGLGION/Lf/37h55Xs4HZV2Cg6XmlQ+B8D4jced7kERDeBc4umWRIP5/1tQPmekJ0WUgDwQfHeZkCQvtAp+k477bjdI5p/z1woX8C0OdjcmZDjPgAAABWZVhJZk1NACoAAAAIAAGHaQAEAAAAAQAAABoAAAAAAAOShgAHAAAAEgAAAESgAgAEAAAAAQAAAL2gAwAEAAAAAQAAAHYAAAAAQVNDSUkAAABTY3JlZW5zaG903RhyUQAAAdZpVFh0WE1MOmNvbS5hZG9iZS54bXAAAAAAADx4OnhtcG1ldGEgeG1sbnM6eD0iYWRvYmU6bnM6bWV0YS8iIHg6eG1wdGs9IlhNUCBDb3JlIDYuMC4wIj4KICAgPHJkZjpSREYgeG1sbnM6cmRmPSJodHRwOi8vd3d3LnczLm9yZy8xOTk5LzAyLzIyLXJkZi1zeW50YXgtbnMjIj4KICAgICAgPHJkZjpEZXNjcmlwdGlvbiByZGY6YWJvdXQ9IiIKICAgICAgICAgICAgeG1sbnM6ZXhpZj0iaHR0cDovL25zLmFkb2JlLmNvbS9leGlmLzEuMC8iPgogICAgICAgICA8ZXhpZjpQaXhlbFlEaW1lbnNpb24+MTE4PC9leGlmOlBpeGVsWURpbWVuc2lvbj4KICAgICAgICAgPGV4aWY6UGl4ZWxYRGltZW5zaW9uPjE4OTwvZXhpZjpQaXhlbFhEaW1lbnNpb24+CiAgICAgICAgIDxleGlmOlVzZXJDb21tZW50PlNjcmVlbnNob3Q8L2V4aWY6VXNlckNvbW1lbnQ+CiAgICAgIDwvcmRmOkRlc2NyaXB0aW9uPgogICA8L3JkZjpSREY+CjwveDp4bXBtZXRhPgqHhn9TAAAefUlEQVR4Ae1dCXxN19ZfEYKYhURIGmMQQw2lhqiaxxKeqXg1fHjGFm1NT716WlQfXkvrPWoorWeeamprTgw1S5CQRCIJMUSEDGQ8314r9uk5Nzf3Hte59+a2e/d379nD2muv/d9rr73Wbu7htPjAaxKIJBD4EyFQGOdatoTXn2jK9p9qUmqcwNwOy8BxL2SHscWQAgG7IiCU3q7wi8HtgYBQenugLsa0KwJC6e0KvxjcHggIpbcH6mJMuyIglN6u8IvB7YGAUHp7oC7GtCsCQuntCr8Y3B4ICKW3B+piTLsioKvSOxdygaJFykAhJ/ofvXadmBhcGwJFC5eCIs4ltBH/QahMaudw/2NMgYvIU83OyYQHT0MgMHw+pDyPl+t5plO9RVC5bDO4EL0SrsR+z6tf6lnHMwCqlHsTLt5eBY9Tb71UX0uIh7U+Cs6FisCaQH9Luhvt41G6IdT3eheiE45B5IOfjdKYq3xZ7JX8TM2pc/3F4FWuBZyL+gau390KQ1oehKzs57D+VAclC6vkTcll6YCWYK3J0j95FgtP0m6Dk5MTeJZtAp3r/cuojPFJFyExNZwpa4TRdi2VNd27go/bW1ChZG0t5DrQODEe+NEveZR5neZQreKrK5JW7NXS5z8npxdzdYJCkCNl03rdfXJB3d1qpfzlsnRIS7A2aem5IAdD3ofU9Afwmlsb6Oi3EEoVq0JuzIBm2xhoEeDCjsdiRcpCTGIQtRVzKQft6vwTvMq3hLD4XWRV8ATo4DcfktKi4ddrH0PXBl9BWdeqbAgJnj67A8fCPmX8/aFCqbo0bIsaUyEjK5XRR0Hn+kugZLFKkJ2TAbcTTsDxG3O5aPKzYik/aFnzIyhfoibR3XtykY0zDUoUdYe+TX+E5Od3YNfF4WzjFoKhLX+GtIxHsP38ILl/twZfAwKIY5yJXArh9/eDf60ZULVCO4hnvCqXfYP6ovU+cWMe9atWoT20qvUxoIuAsp6P/g/b8JHQyHs4tXuVaw4takxm/P4tj/OyGWPYv8qclOOj4uNaOhcqRtXomnatvxTKlagBOTlZ8CA5BI6G/QPSM58ou4GjY63J0vMZ48JjypEymdvjzHxBV8DjBUEq7FycAViZ6ooXcYP7T69QvnrFjtSntmcvKj95FgP+vrNIORHYTHa0ovK3r/sZU7h0Rpv7l87oSqEC9my0kvjiEYwxQw33zqRIxFTx1Y71x9MhKe0WyeZdvjXU8uhOfVDOEkUrETUudG65oqI30AkmSRK1+fvOZPYwVyFcCpckq41uXmGmHHgSlS7uBSWLekC7uv9kCl8a0rOSAelasU1XrkR1yGb4YEJ+OD89khJ7xMHSOSllwZOb+LjkYoEb341OWAmcnV3IVe3kt0jZhfKOjrUmpR/YfAeMbBMEfpX70aTD7x9QAXH97jbYeKa7qi4sfjdT3xymbBXJZ/Ys05jar8Suh2Rm2e8mnYefr06BqIeHqb64S3kIidsICclhVD4XtQwyslNIqVD5910ZD+ejVlBbDfcu9FR+lWQWHVPy87twKWYNO2F2sk2Tq3xKuvzyR0L/Dt+ffJtOAFR4nwptZFJ027DtQfI1qqtdqTc08B7K8k500h0Ifp/mg43omoXE/Uh0d5LOsfjmP5S39Msc9qb4mpqTYT+Ma/CURKOz6bcAdgq+Sxa+sHPuKaCkd3SsNbk3WdnppMAYvN56eAiu3tlElg2ByMp5Tu6AEhTM50hZ8CglnKxv7UoBzP0pB8/ZMYmxAbo4GLD2eD1XiQ378nL5ErUoi5YtoMk6Xk3WSS68yMQ9/o0CNB+3tkzx2jILm8YCyeOGZBSX5KlkFZz2IVNsVNzX2Ien2MenKJvGXDwoVY+dasWgdDFvqkNFUcpWgp0AeiZj2KN7o0xosY0lU3MypC/rWo2qELfnmUn0+dHAkPE+jo61JqXffuFd8un5pJVPU9Y0lJ0AbXz/Dk2rjqEu0QlH6NmixhSy/ldiNwD63l2YH2kspabfp2rcWEdCZzO76gSuLhXYCZCqIkfXAk+MhORQ5ipVY7c/zWljtKw5FfYHTyBa5xe3UHwjqRiwgltJX7ZJbzJl9qKm+KQLzJXpRnl0wwzT88xEqkIf/lz0Cub6sOvawmVoQ2NsoFcyhj0qJiZL5sTdTUP5MHZCK48GBhPGKe3rslu69HgIvDmf6vDrj4C1JqWXZ/ySmYj7B6E1CwbRb8SErg0mbpjSs55AyxofUh3/khjwmGp79oHTEV/SCYO+tK9HTyhT3JviBwyeuVuEtKiU6IdjusHcqrjEM1CtYntWcoJnGYm5PJh17tNkPZRx9SE6w68eDVdAYlok+eS4+HiicaU3pMVyVMJRFl90Yb+AqgZV3d5m7tBb5IoFx/0gB34VS9al0yfu8RljLCyue5U55af0aLySn99j8ZMn9Hz9v3RRgXija6dMfwSsNfn0GJDln35vMyRDnx7dBUxpGQ/l0yLifu7ddfNqExm4pVkrBpDFmRWvyJQ59zRwZ24EBslBzMqgW1S1wtuk8BlZKeym5x/Ek3/hSRB6dwcV67DNggqPdEHhC6ju1oND9MSAO5PdslD6XezcMvvGMTHhzQ3GEShXbsqhB9+QiEfMo0AIjd9BG863Uk9SeLT6F6NXwe1HJ6g/xil4X/8qKT/sLZ0Tn4Mxmc6zEwvXzL10fTIwuRj+buWxzx8Bayf8Ybg9fiOLV5zoqqDVNkz4fwiLsesz3CjcfcJbEQwwjdHz/hiMeZVryTZaKPXl9fhEnq5FK1BMoaxX5vEWKS0jgTaMst5cHt0ZjHfwWleZ0PdGVwSVR5n4bzWVdZbkrTEnxNCdGZsMdiOF7l5+yVGwVsrPcbeb0iuF+bPlOfh/tnnbe74cd03ujb2FFeMLBPREQCi9nmgKXg6BgFB6h1gmIaSeCAil1xNNwcshEBBK7xDLJITUEwGh9HqiKXg5BAJC6R1imYSQeiIglF5PNAUvh0BAKL1DLJMQUk8EhNLriabg5RAI0F9Z4v+eFcm2CAjMbYs3Hw1xJ6Wf2vU2rxNPGyCw5KAPCMxtALTBEBx34d4YACOKf3wEhNL/8ddYzNAAAaH0BoCI4h8fAV2V/tixYzBp0iQVao8fP4YFCxZAr169YMaMGZCQkKBq5wWtdJx+2bJlsHr1al7M8zTHr3v37rBv3z54+PAhTJ06FTp06ABz586FGzdu5OG1detWGDhwYJ76glCBv6waNWoUnD17ViXOoUOHYMSIETBkyBDYuXOnqk1Z0ErH+5jDwhS/M2fOQNOmTYkV59OvXz/Yvn07PHv2jA9BTyz37NkTjhzJ/SWdqvFVC/jLqVdNsbGx0jfffCNVr15datKkicwuJydH6tOnD9Vv2LBBGjx4sNSwYUMpKytLpsGMVjqkvXDhgjR//nz8HZ80ffp0rMqTzPFLSkqi/qmpqSQvyoTyTZkyheofPXok87x16xbV+fr6ynWvmtEDc5Rh79690tixY0m+/fv3y2KxDUB1EydOlH744QepVKlS0rZt2+R2ntFKx+nNYWGO3+zZs6V58+aR3Lh+zNiQfKg3s2bN4sPQc/LkyTQHY3KrCF+iwHEHnnmJvnlI2e6WBgwYQAqtVPrIyEgSPDo6mvowK0/lwMBAFQ+tdNiJWXgay93dPV+lN8cPgcTNeP/+fZLnzp07JA9uRlSQtWvXUjkzM1Nq3bq11L9/f6kgKv3o0aMJC1QgpdKPHDlSwjaeULnat2/Pi/JTKx120IKFOX6I4cWLFyVU6PHjx8tyLF++XML15AnngnqEm8EaSq+Le4OuwebNm4FZHdXBExUVBUyJwMfHh+rd3NyoHBGh/l2sVjpkwqwXjdW2bVvVWMqCOX67d++GgIAAcHV1hZMnT0LlypWpe3h4OCQnJwMDnMoLFy4k2QcNGqRkX2DyK1euJCwQY2VCF6158+ZyVa1ateDq1atymWe00iG9FixM8UNs2QkLjRo1ArYhYebM3LdXIG90e/h6PnjwAIYPHw7r1q2DwoWt87IO63DFmbAUExMDnp6euYUX37gAzK1Q1WmlU3UyUTDFLyMjA3bt2gVffvkllCzJXsXXqhVxQl8U/d8ePXoAc3doITBuuH79Ohw/nvelUSaGt3sTKliZMmVkOby9vQGVyTBppUOl1IKFKX4YPyG++GIqPz8/EuXp06cUTzEXjIwPs/QUn7CTABo0aGAorm5lXSx9ftIUL14c4uPjVc0pKSlQtWpVVZ1WOlUnEwVT/NCyo1J7eOS+iYy5NDBhwgTo1KkTINi4IRB8XCAMXoODgyEkJISs1NGjR4Ed8yZGLhhNuJmVFwZpaWny6aWUUAvdy2Bhit+OHTsoMOXjX7p0CdAA4jM0NJSMz8aNGwEvQzDYRaxRbsQeN5OeyaqW3svLi9wFvEkpV64cTeLmzZtQp04d1Ry00qk6mSiY4scCbujbt6/ce9iwYXT0h4WFQe3atak+OzsbihUrBocPH6YPKhBaSnStgoKCaC4ygwKYQaPC4ihZMlQa3OiGSQsduxTQjEV+/BC7y5cvg7+/P4lw7do1cmc++eQTsvTOzs5Ujx4AnkrsQoHKcXFxsGLFCkAjxi4tDMW3vKxHIMsDkG+//VZ1e8NcCQoM58yZI7GjjKJ1DFgwYMTgdunSpVJ6erqklY6Pg08MLpW3N1r4YTDGNoTEFJxYYR+GnMSuzKgO6/GTmJioHEras2dPgQxkuZAYfCsDWQwMsQ5v1U6fPk1zXrVqFZFv2rRJOnHiBOW10vFx8GmIhRZ+69evl4YOHSqzwSC7TZs2KszZxpTbeQZv1awRyOpye8OFZLtSatasGS/Sk92zkmKhcuFC8JsbvPHBOrw+xKSVjojZF94WsXt/XpS08Lty5YpKeRFQlMHwg9evymS40Mo2S/J6Ghoc31Dp0Yj07t1bnhcaCH5NjLdR3FhopVPO0RALLfxw/C1btshs8BbHEHOcg2FyCKU3FJqX0Zozv42uvXidsadWOmN9jdXpzc/YGJbU6a30+cnA3AOJxVT5Ncv1WunkDmYyevMzM5zmZo67VX16tpspubi45PHjeZvyqZVO2cdUXm9+psYqiG1VqlTRJJZWOk3MGJHe/LSOq5XOqrc3WoUQdAIBWyIglN6WaIuxCgQCQukLxDIIIWyJgFB6W6ItxioQCNCruguEJEIIgYCNEKDbm8Et8/97axvJ8acaZuPpPiAwt/2Sc9yFe2N77MWIdkZAKL2dF0AMb3sEhNLbHnMxop0REEpv5wUQw9seAaH0tsdcjGhnBITS23kBxPC2R0Aove0xFyPaGQGh9HZeADG87REQSm97zMWIdkZA17+nPxV0AfbtOQyfL5omT+tJ0lP4fs12uHA2GHzrVIdxk/4K5d3Kyu08o5XuUcJj+HrJWrh+9Sa0aNUEAv7SBWrU8uFs5Kc5fkP6vw8jRg2Axk3rmeX3065DsHf3Ifjv2oUy/4KSYb+ggI/e/wyGDu9Lc+FynTj2G+zYcoB+yN6zd0fo1rMdb1I9tdBlZWXD9CnzVf2QX8cuub95VTaY4nfhXAjM/Ggh/HL8R+CYZmfnQJ9+XaBDZ3/2W9yiMqvnz9Nh9LBp8LcJQ8H/rWZyvR4ZXSx9/N37sO67rTB14lw499sVWS5ckCkT/wkb1++EXn06wd0796B/r7GAE1UmrXTY592/sB9nHz8Lg4b0gqdPU8C/WV9IevxUyY7eZmBqXOx35NeT0PqtN8zyi7l9B8YMnw5XQ26qxigIhUM/B8GMDxfCxg274HFikizS5YvXYGDAeChR0hU6dPKH98fOIWMkE7zIaKW7E3cP9uz8hTYVGgn8eFSqYMgOzPE79EsQdGebBeVGTD0re1B53pyv4N9ffqfiN3/ucqJD46V30sXSR4TfhtMnL0CJEq4q+WJu34UDe4/CuZC94OXtCe07tQa/6u3hwrlgaN6ikUyrlS7hYSKEXAmDS2EHoVKlihDQryttqJ8PHIeBg9/RzC+QWUG0VKkp7BUTJvihhZv4t0/gnYCOcO2qvq+hkIV9hczB/ccgmW1gw7SenaxDhvWRT9xgNkc0Sj16dVCRaqXDjV+vQW06TVQMDArm+O3Z+Sv8d80C2PK/vTB8VH/49PPctx48eZIMSxatghmfTCCOaJDOnLoIPlW1/fLLQAyzRV0sfZu2zenof29kP9WACFZJZm1Q4TGVK1+GylG3Yi2iK+5aDPb8vIYUHhlERcZAClPcBq+rXylibtyD+48zpX8bzPFbvnQteyWFJ7lQKoELSOFfX80m3BFjZYqIiGbWuL5cVb2GN4SFRsplntFKFxN9B9Aw9eo6EgK6jYKd2w5CZkYmZyM/TfG7xdbqKVPueg18YSjbkO9PHSH3u3A+BFq2zn2rHBq2D8Z/Cl+tmAvOVnrDmS5KL0tvkMFj0Z1ZZGWqVuM1SEtVv6FWKx2eJM3efJ3Yoe/Yp8do8iv96tVSDgGm+OFiHWSnz9vtW9HJlB8/9D9Xr9wMn33xe3yiGqQAF6IiY6F06ZKyhJWrVAJUJsOklS46Ko5ig2Ej+hHe0yZ/Dl98vsKQHTNC+Y97mLk2fft3ozecYWyHrk1ycip8OGkebN+8H0aPG0xuKZYxX9evZh7+elVYVekxMHlw76FK1lSm8N6v5b47kjdopUN6dDkwGEKfFcFZ++MSzkZ+muJ3lsUcdevXgoru5YneGD+MMSaM/jv07tsZrl8Lh9BrEWSlTgaeZ4ufJY9TUDMlShSHxEe/+/jPnj3Pcxqi7Frppk4fDWeDf4K/DOwOEycPh5FjBsLmjT/lmb4pfvv2HIFOXdvIfa4G34BWTQIgJDgMAs9uJ2O2c+tBOBV0Hl5vVBcQ62dpzyH0egTgKaFn0sWnz0+gylU8yP3AYKRM2dLsHeTP4VbEbajpW1XVRSsddvpg3BwIux4JQed2GL21QRpT/Nau2gI93mmPZJSM8cNAuyjbsIEsYMYPKhBaylkffwF7Dq6mufD+BfGJRiU25q4sGiqN4WmIjVrpjh0+DbXr1oDq7JTGhO6qu7sb5ZVf+fFD7K6F3IA3X8RxN8IioU/3UTBl2mi6nXF2zrW9aWnPoLJXJZgzazGxxQuS71dvo1sd3Gx6JataevQr0d9cuWIjKf8Xn62AChXLE9hxsfGwitWju6GVDvvsYNbgwxljaP6RLIDGD24qLfxwsfCqrGPnXIuTH7+U5BQ4fmar/Fm87BOoXtOHyrh5C3rqzjb196u3AioNummoOM1eKNzuHb/Ab6cv0RS00p09cxlGvzcNMtIzCO8N63ZAb3ZVjEkLP9w0XXq8DUVcilCfVSv+R4Fxl25tIZrFd7iGGOfhtasSd9yoCxfPoNOFOur0pauld3IC4O8lRPmKFCkM6/63FPq98zdY8sUq2gA/blvGaArRJOfMXAwD2dUj+p9a6K5cuk7T/r+/fqya/oJ/zSCrb47fzRu3KHjl9/qm+OHtgqMmVJ4TR3+DJn7daQp4+4RXvJhWr9zELG5jeLNlY1IyLXRjxg9mtymXwMejJfFo1KSefFumhd+4/5vJbsA6UV/8On3yIp34eN3MExrH8LhAXrTqk34ja+2frqE1v81uAKpW92bvHM99WaexWWmlM9bXWJ3e/IyNYUkd/9maJX1fps+9+AdQqJAzuHvkdUWUfDTTsfjMif1n7I7eEn7KPrbIc9x1tfT5CY7HmqEfb4xWK52xvsbq9OZnbIyCXFfJ012TeJrpDG7i8mOulV9+/a1db1Wf3trCC/4CAUsQEEpvCWqij0MjIJTeoZdPCG8JAkLpLUFN9HFoBITSO/TyCeEtQUAovSWoiT4OjYBQeodePiG8JQgIpbcENdHHoREQSu/QyyeEtwQB8apuS1ATfRwaAfozhKldbzv0JBxN+CUHfUBgbvtV47gL98b22IsR7YyAUHo7L4AY3vYICKW3PeZiRDsjIJTezgsghrc9AkLpbY+5GNHOCAilt/MCiOFtj4BQettjLka0MwJC6e28AGJ42yMglN72mIsR7YyAUHo7L4AY3vYI6Kr0x44dg0mTJqlm8fjxY1iwYAH06tULZsyYAQkJCap2XtBKd+PGDRg3bhx07doVFi5cCNHR0ZyF6mmOX/fu3WHfvn3w8OFDmDp1KnTo0AHmzp0LyN8wbd26FQYOHGhYXSDK+ArCUaNGwdmzZ1XyHDp0CEaMGAFDhgyBnTvz/xfhtdJdunSJ1rZdu3Ywbdo09pp046/QNsXvzJkz0LRpU5KTY9qvXz/Yvn07e/ud+v2mWO7ZsyccOXJENS9dCosPvMZwe7UUGxsrffPNN1L16tWlJk2ayMxycnKkPn36UP2GDRukwYMHSw0bNpSysrJkGsxopcvIyJBKlSol9e7dW9qyZQvxbtOmjYqXFn5JSUkSA09KTU0leVEmlG/KlClU/+jRI5nnrVu3qM7X11eue9WMHpijDHv37pXGjh1L8u3fv18Wi20Aqps4caL0ww8/EGbbtm2T23lGK93du3eJx5gxYySmoLSGzEBwNvLTHL/Zs2dL8+bNI7kRf2ZsSD7Um1mzZsl8MDN58mSagzG5VYQvUeC4A8+8RN88pGx3SwMGDCAwlEofGRlJgjNrTH2YladyYGCgiodWunPnzlH/zMxM6h8UFERlpZJigzl+CCRuxvv371P/O3fuED/cjLip1q5dS2Ucp3Xr1lL//v2lgqj0o0ePJtxRgZRKP3LkSAnbeELlat++PS/KT610qOBoaHi6fv26tHv3bl6Un+b4IYYXL14khR4/frzcb/ny5ZK7u7tcxrmgHuFmsIbS6+LeoGuwefNmYFZHdfpERUUBUyLw8fGhejc3NypHRERYRIdHI1NESE9PB7ZxyB1p0aIFlC+f+wZiztTcuGzBICAgAFxdXeHkyZNQuXLuW5TDw8PZ66OTgQFOrNB9QtkHDRrEWReo58qVKwl3xFiZ0EVr3ry5XFWrVi24evWqXOYZrXSIS40aNeC9994jNxDdlI4dO3I28tMUP+TBTlho1KgRsA0JM2fOlPshv7Zt21L5wYMHMHz4cFi3bh17G5513kWmi9LL0htkYmJiwNMz9x9k4E24AMyt4EV6aqVzYi/LRCBu3rwJb731Fvz666/wxhtvsNd3q1+fbYofc5Fg165d0KVLF/ZuzZLQqlUrkgF9UQS+R48ewNwdwIVYtmwZfP311ypZHaGAClamTBlZVG9vb0BlMkxa6VCZlyxZQjyZOwkffPABrFq1ypAdmOKH8RPGF7iGfn5+4OXlRXEBxiPMBQPmztD76bGM+QYNGuThr1eFVZW+ePHiEB8fr5I1JSUFqlatqqrTSsc7NW7cmCw+Wmx2NMKpU6d4Ez1N8UPLjkrt4eFBtLhhJkyYAJ06dSKwcUOwc5YWCIPX4OBgCAkJISt19OhRGlc1WAEs4GZWXhikpaXJp5dSXK102dnZwNwjMgKffvopLFq0CNasWaNkRXlT/Hbs2EGBKe+EgTEaQHyGhoaS8dm4cSPgZQie6Ig1yo3Y42bSM1lV6XE3o7uANymYcBJopevUUf9zOVrp0IVisQPxQov/zjvvkLvEgk2q41+m+P3000/Qt29fTgrDhg0DFhtAWFgYHbnIlwXW7J3oxeDw4cPAgkH49ttvyVJiHjdtQU9oVJS3Wqg0uNENk1Y6dPFq1qwpd2f+N9y7d4+Mg1zJMvnxw1Pm8uXL4O/vT+TXrl2jU/Wjjz6iWyeuD+gB4KnELhQI97i4OFixYgXghtE16RHI8giEKYfq9obftsyZM0diV1wUrWPAggEjBrdLly6VmH8uaaXjASre3LArLbpxYWBI7NpREz8MTNmGkJiCk8goA/bHGwms45/ExEQ+JXru2bOnQAayXEgMvpWBLAaGWIe3aqdPn6Y5M3eEyDdt2iSdOHGC8lrpvvvuO+KHQShTYKlbt24Su37WzG/9+vXS0KFDubgUZOOtG8cbn2xjyu08g7dq1ghkdbm94UKyXSk1a9aMF+nJ7llJsVC5cCH4zQ3e+GAdXh9i0kqHtxLYDz8Y3eOYmLTwu3Llikp5EVDOS/nE61dlcjSlRyOCty18Tnj7hIYGE95GTZ8+nfJa6dAwsWBe5oe3MGgwtPLD8dFQ8YT9uWz8ibphmBxC6Q2F5mUEjfltEr9q5PWGT610eNVozDJYys+wn7XLep6upmRl7oHEYipTJNSmlQ7v69nNm8R8fJM8tfIzycQKjRx369wJse2rTC4uLnn8eGU7z2ulQ58SP+aSVn7m+Dhqe5UqVTSJrpXO8CYuP+Za+eXX39r1Vg1krS284C8QsAQBofSWoCb6ODQCQukdevmE8JYgIJTeEtREH4dGQCi9Qy+fEN4SBITSW4Ka6OPQCAild+jlE8JbgoBQektQE30cGgGh9A69fEJ4SxAQSm8JaqKPQyMg/lEGh14+IbwlCPw/IghHNJJdT0oAAAAASUVORK5CYII=;" parent="1" vertex="1">
          <mxGeometry x="930" y="180" width="189" height="118" as="geometry" />
        </mxCell>
        <mxCell id="I0Hr2agrUQy3wI3fVDXH-20" value="" style="whiteSpace=wrap;html=1;aspect=fixed;fillColor=none;" parent="1" vertex="1">
          <mxGeometry x="554.98" y="146" width="352.55" height="352.55" as="geometry" />
        </mxCell>
        <mxCell id="I0Hr2agrUQy3wI3fVDXH-41" style="edgeStyle=orthogonalEdgeStyle;rounded=0;orthogonalLoop=1;jettySize=auto;html=1;exitX=0.72;exitY=0.99;exitDx=0;exitDy=0;exitPerimeter=0;" parent="1" source="I0Hr2agrUQy3wI3fVDXH-21" target="I0Hr2agrUQy3wI3fVDXH-26" edge="1">
          <mxGeometry relative="1" as="geometry" />
        </mxCell>
        <mxCell id="I0Hr2agrUQy3wI3fVDXH-21" value="" style="aspect=fixed;sketch=0;html=1;dashed=0;whitespace=wrap;verticalLabelPosition=bottom;verticalAlign=top;fillColor=#2875E2;strokeColor=#ffffff;points=[[0.005,0.63,0],[0.1,0.2,0],[0.9,0.2,0],[0.5,0,0],[0.995,0.63,0],[0.72,0.99,0],[0.5,1,0],[0.28,0.99,0]];shape=mxgraph.kubernetes.icon2;kubernetesLabel=1;prIcon=node" parent="1" vertex="1">
          <mxGeometry x="700" y="280" width="62.5" height="60" as="geometry" />
        </mxCell>
        <mxCell id="I0Hr2agrUQy3wI3fVDXH-22" value="" style="aspect=fixed;sketch=0;html=1;dashed=0;whitespace=wrap;verticalLabelPosition=bottom;verticalAlign=top;fillColor=#2875E2;strokeColor=#ffffff;points=[[0.005,0.63,0],[0.1,0.2,0],[0.9,0.2,0],[0.5,0,0],[0.995,0.63,0],[0.72,0.99,0],[0.5,1,0],[0.28,0.99,0]];shape=mxgraph.kubernetes.icon2;kubernetesLabel=1;prIcon=node" parent="1" vertex="1">
          <mxGeometry x="597.5" y="280" width="62.5" height="60" as="geometry" />
        </mxCell>
        <mxCell id="I0Hr2agrUQy3wI3fVDXH-23" value="" style="aspect=fixed;sketch=0;html=1;dashed=0;whitespace=wrap;verticalLabelPosition=bottom;verticalAlign=top;fillColor=#2875E2;strokeColor=#ffffff;points=[[0.005,0.63,0],[0.1,0.2,0],[0.9,0.2,0],[0.5,0,0],[0.995,0.63,0],[0.72,0.99,0],[0.5,1,0],[0.28,0.99,0]];shape=mxgraph.kubernetes.icon2;kubernetesLabel=1;prIcon=node" parent="1" vertex="1">
          <mxGeometry x="790" y="280" width="62.5" height="60" as="geometry" />
        </mxCell>
        <mxCell id="I0Hr2agrUQy3wI3fVDXH-25" style="edgeStyle=orthogonalEdgeStyle;rounded=0;orthogonalLoop=1;jettySize=auto;html=1;entryX=0.5;entryY=1;entryDx=0;entryDy=0;" parent="1" source="I0Hr2agrUQy3wI3fVDXH-24" target="I0Hr2agrUQy3wI3fVDXH-19" edge="1">
          <mxGeometry relative="1" as="geometry" />
        </mxCell>
        <mxCell id="I0Hr2agrUQy3wI3fVDXH-24" value="" style="outlineConnect=0;dashed=0;verticalLabelPosition=bottom;verticalAlign=top;align=center;html=1;shape=mxgraph.aws3.rds_db_instance_read_replica;fillColor=#2E73B8;gradientColor=none;" parent="1" vertex="1">
          <mxGeometry x="999.75" y="360" width="49.5" height="66" as="geometry" />
        </mxCell>
        <mxCell id="I0Hr2agrUQy3wI3fVDXH-34" style="edgeStyle=orthogonalEdgeStyle;rounded=0;orthogonalLoop=1;jettySize=auto;html=1;" parent="1" source="I0Hr2agrUQy3wI3fVDXH-26" edge="1">
          <mxGeometry relative="1" as="geometry">
            <mxPoint x="1030" y="430" as="targetPoint" />
            <Array as="points">
              <mxPoint x="775" y="480" />
              <mxPoint x="1030" y="480" />
              <mxPoint x="1030" y="440" />
            </Array>
          </mxGeometry>
        </mxCell>
        <mxCell id="I0Hr2agrUQy3wI3fVDXH-26" value="&lt;b&gt;BE&lt;/b&gt;" style="aspect=fixed;sketch=0;html=1;dashed=0;whitespace=wrap;verticalLabelPosition=bottom;verticalAlign=top;fillColor=#2875E2;strokeColor=#ffffff;points=[[0.005,0.63,0],[0.1,0.2,0],[0.9,0.2,0],[0.5,0,0],[0.995,0.63,0],[0.72,0.99,0],[0.5,1,0],[0.28,0.99,0]];shape=mxgraph.kubernetes.icon2;kubernetesLabel=1;prIcon=api" parent="1" vertex="1">
          <mxGeometry x="750" y="378" width="50" height="48" as="geometry" />
        </mxCell>
        <mxCell id="I0Hr2agrUQy3wI3fVDXH-31" style="edgeStyle=orthogonalEdgeStyle;rounded=0;orthogonalLoop=1;jettySize=auto;html=1;" parent="1" source="I0Hr2agrUQy3wI3fVDXH-27" edge="1">
          <mxGeometry relative="1" as="geometry">
            <mxPoint x="990" y="402" as="targetPoint" />
          </mxGeometry>
        </mxCell>
        <mxCell id="I0Hr2agrUQy3wI3fVDXH-27" value="&lt;b&gt;BE&lt;/b&gt;" style="aspect=fixed;sketch=0;html=1;dashed=0;whitespace=wrap;verticalLabelPosition=bottom;verticalAlign=top;fillColor=#2875E2;strokeColor=#ffffff;points=[[0.005,0.63,0],[0.1,0.2,0],[0.9,0.2,0],[0.5,0,0],[0.995,0.63,0],[0.72,0.99,0],[0.5,1,0],[0.28,0.99,0]];shape=mxgraph.kubernetes.icon2;kubernetesLabel=1;prIcon=api" parent="1" vertex="1">
          <mxGeometry x="820" y="378" width="50" height="48" as="geometry" />
        </mxCell>
        <mxCell id="I0Hr2agrUQy3wI3fVDXH-28" value="" style="points=[];aspect=fixed;html=1;align=center;shadow=0;dashed=0;fillColor=#FF6A00;strokeColor=none;shape=mxgraph.alibaba_cloud.webplus_web_app_service;" parent="1" vertex="1">
          <mxGeometry x="590" y="390" width="54.900000000000006" height="54.900000000000006" as="geometry" />
        </mxCell>
        <mxCell id="I0Hr2agrUQy3wI3fVDXH-29" value="&lt;b&gt;FE&lt;/b&gt;" style="text;html=1;align=center;verticalAlign=middle;whiteSpace=wrap;rounded=0;" parent="1" vertex="1">
          <mxGeometry x="610" y="444.9" width="72.5" height="30" as="geometry" />
        </mxCell>
        <mxCell id="I0Hr2agrUQy3wI3fVDXH-30" value="" style="points=[];aspect=fixed;html=1;align=center;shadow=0;dashed=0;fillColor=#FF6A00;strokeColor=none;shape=mxgraph.alibaba_cloud.webplus_web_app_service;" parent="1" vertex="1">
          <mxGeometry x="660" y="390" width="54.900000000000006" height="54.900000000000006" as="geometry" />
        </mxCell>
        <mxCell id="I0Hr2agrUQy3wI3fVDXH-35" value="&lt;b&gt;MYSQL&lt;/b&gt;" style="text;html=1;align=center;verticalAlign=middle;whiteSpace=wrap;rounded=0;" parent="1" vertex="1">
          <mxGeometry x="1040" y="387" width="72.5" height="30" as="geometry" />
        </mxCell>
        <mxCell id="I0Hr2agrUQy3wI3fVDXH-36" style="edgeStyle=orthogonalEdgeStyle;rounded=0;orthogonalLoop=1;jettySize=auto;html=1;exitX=0.28;exitY=0.99;exitDx=0;exitDy=0;exitPerimeter=0;entryX=0.638;entryY=0;entryDx=0;entryDy=0;entryPerimeter=0;" parent="1" source="I0Hr2agrUQy3wI3fVDXH-21" target="I0Hr2agrUQy3wI3fVDXH-28" edge="1">
          <mxGeometry relative="1" as="geometry" />
        </mxCell>
        <mxCell id="I0Hr2agrUQy3wI3fVDXH-37" style="edgeStyle=orthogonalEdgeStyle;rounded=0;orthogonalLoop=1;jettySize=auto;html=1;entryX=0.036;entryY=0.656;entryDx=0;entryDy=0;entryPerimeter=0;" parent="1" source="I0Hr2agrUQy3wI3fVDXH-22" target="I0Hr2agrUQy3wI3fVDXH-28" edge="1">
          <mxGeometry relative="1" as="geometry">
            <Array as="points">
              <mxPoint x="570" y="310" />
              <mxPoint x="570" y="426" />
            </Array>
          </mxGeometry>
        </mxCell>
        <mxCell id="I0Hr2agrUQy3wI3fVDXH-38" style="edgeStyle=orthogonalEdgeStyle;rounded=0;orthogonalLoop=1;jettySize=auto;html=1;exitX=0.72;exitY=0.99;exitDx=0;exitDy=0;exitPerimeter=0;entryX=0.346;entryY=0.036;entryDx=0;entryDy=0;entryPerimeter=0;" parent="1" source="I0Hr2agrUQy3wI3fVDXH-22" target="I0Hr2agrUQy3wI3fVDXH-30" edge="1">
          <mxGeometry relative="1" as="geometry">
            <Array as="points">
              <mxPoint x="680" y="339" />
              <mxPoint x="680" y="370" />
            </Array>
          </mxGeometry>
        </mxCell>
        <mxCell id="I0Hr2agrUQy3wI3fVDXH-40" style="edgeStyle=orthogonalEdgeStyle;rounded=0;orthogonalLoop=1;jettySize=auto;html=1;exitX=0.72;exitY=0.99;exitDx=0;exitDy=0;exitPerimeter=0;entryX=0.5;entryY=0;entryDx=0;entryDy=0;entryPerimeter=0;" parent="1" source="I0Hr2agrUQy3wI3fVDXH-23" target="I0Hr2agrUQy3wI3fVDXH-27" edge="1">
          <mxGeometry relative="1" as="geometry" />
        </mxCell>
        <mxCell id="I0Hr2agrUQy3wI3fVDXH-43" value="&lt;b&gt;Developers&lt;/b&gt;" style="shadow=0;dashed=0;html=1;strokeColor=none;fillColor=#4495D1;labelPosition=center;verticalLabelPosition=bottom;verticalAlign=top;align=center;outlineConnect=0;shape=mxgraph.veeam.portal_admin;" parent="1" vertex="1">
          <mxGeometry x="47.8" y="620" width="44.4" height="48.8" as="geometry" />
        </mxCell>
        <mxCell id="I0Hr2agrUQy3wI3fVDXH-47" style="edgeStyle=orthogonalEdgeStyle;rounded=0;orthogonalLoop=1;jettySize=auto;html=1;entryX=0;entryY=0.5;entryDx=0;entryDy=0;" parent="1" source="I0Hr2agrUQy3wI3fVDXH-44" target="I0Hr2agrUQy3wI3fVDXH-46" edge="1">
          <mxGeometry relative="1" as="geometry">
            <Array as="points">
              <mxPoint x="380" y="644" />
              <mxPoint x="380" y="644" />
            </Array>
          </mxGeometry>
        </mxCell>
        <mxCell id="I0Hr2agrUQy3wI3fVDXH-44" value="" style="verticalLabelPosition=bottom;html=1;verticalAlign=top;align=center;strokeColor=none;fillColor=#00BEF2;shape=mxgraph.azure.github_code;pointerEvents=1;" parent="1" vertex="1">
          <mxGeometry x="280" y="629" width="50" height="50" as="geometry" />
        </mxCell>
        <mxCell id="I0Hr2agrUQy3wI3fVDXH-45" style="edgeStyle=orthogonalEdgeStyle;rounded=0;orthogonalLoop=1;jettySize=auto;html=1;entryX=-0.04;entryY=0.32;entryDx=0;entryDy=0;entryPerimeter=0;" parent="1" source="I0Hr2agrUQy3wI3fVDXH-43" target="I0Hr2agrUQy3wI3fVDXH-44" edge="1">
          <mxGeometry relative="1" as="geometry" />
        </mxCell>
        <mxCell id="I0Hr2agrUQy3wI3fVDXH-46" value="" style="shape=image;verticalLabelPosition=bottom;labelBackgroundColor=default;verticalAlign=top;aspect=fixed;imageAspect=0;image=data:image/png,iVBORw0KGgoAAAANSUhEUgAAALgAAACsCAYAAADIdGZKAAABX2lDQ1BJQ0MgUHJvZmlsZQAAKJFtkDFIAmEUx/+WJsmRDRENDQ4ZDSZyOdSoFhU4XJZQbXennYGen3cX0dZQu1BLW5xLNDbU0tDaUkHQEBGNrRG5lFzv0+q0+j4e/x9/3ns8/kCXIDNW9AIo6ZaRmU2GlldWQ/5nCPAhgD6EZdVkCUlKUwu+tfPV7+DhejvOd9lX0d7wQu14qudyrHLyEvzb3/ECubypkn5QiSozLMATI5Y2LcZ5m3jAoKOI9zlrLT7irLT4vNmzlEkR3xD3qwU5R/xEHFHafK2NS8UN9esGfr2Q17OLpINUw5jGDNL0Q8hCRJxKxBxl9P9MvDmTQhkMWzCwDg0FWDSdIIehiDzxPHSoiCJCLCLG9/Ksf2foemUbmHwDuquupxwAZ7vA0L3rjRwCwR3g9JrJhvyTrKfuNdcmxBYLScD36Divo4B/D2hUHefddpxGjfY/ABf6J0oCYx9cQO4aAAAAVmVYSWZNTQAqAAAACAABh2kABAAAAAEAAAAaAAAAAAADkoYABwAAABIAAABEoAIABAAAAAEAAAC4oAMABAAAAAEAAACsAAAAAEFTQ0lJAAAAU2NyZWVuc2hvdHgfC+gAAAHWaVRYdFhNTDpjb20uYWRvYmUueG1wAAAAAAA8eDp4bXBtZXRhIHhtbG5zOng9ImFkb2JlOm5zOm1ldGEvIiB4OnhtcHRrPSJYTVAgQ29yZSA2LjAuMCI+CiAgIDxyZGY6UkRGIHhtbG5zOnJkZj0iaHR0cDovL3d3dy53My5vcmcvMTk5OS8wMi8yMi1yZGYtc3ludGF4LW5zIyI+CiAgICAgIDxyZGY6RGVzY3JpcHRpb24gcmRmOmFib3V0PSIiCiAgICAgICAgICAgIHhtbG5zOmV4aWY9Imh0dHA6Ly9ucy5hZG9iZS5jb20vZXhpZi8xLjAvIj4KICAgICAgICAgPGV4aWY6UGl4ZWxZRGltZW5zaW9uPjE3MjwvZXhpZjpQaXhlbFlEaW1lbnNpb24+CiAgICAgICAgIDxleGlmOlBpeGVsWERpbWVuc2lvbj4xODQ8L2V4aWY6UGl4ZWxYRGltZW5zaW9uPgogICAgICAgICA8ZXhpZjpVc2VyQ29tbWVudD5TY3JlZW5zaG90PC9leGlmOlVzZXJDb21tZW50PgogICAgICA8L3JkZjpEZXNjcmlwdGlvbj4KICAgPC9yZGY6UkRGPgo8L3g6eG1wbWV0YT4KYvRK+gAAQABJREFUeAHtfQdglEX6/pPeC6H33puoIF0siJx6oNiwg/XuFMudDcuJ/j07KvYOthPxRAVpnoh0pPeSUBIgkATSe9v/80z4wmazmwLxd2Z3X11285X5vpl55p133jY+eXl5NnjJ2wJu2gK+blovb7W8LWBawAtwLxDcugW8AHfr7vVWzgtwLwbcugW8AHfr7vVWzgtwLwbcugW8AHfr7vVWzt/bBL9PC9hsNuTm5iInJwcFBQXQ3/7+/oiMjERoaCh8fb285fdp+YqlegFesT1O+S8azLBv3z5s2rQJ27ZtQ0LsPmQX5SM/Px/FxcUG4H5+fggJCUFoSChat26FXr16oXuPHujdu7c5fsoP997osgV8vJZMl21ToxNxcXH44vPPsXDRIqQfOYZSn1KUwobS0lIUFRWhpKSYn9LysgIDA+FLoAfp28cH+cVFCAwKwqWXXoqbbroJffr0Kb/W++P0W8AL8Fq2oYCbm5OLX5f+iueeew6bN29GQ4odweTM8nnwIWiPJmciLMwH5w46E127dULD6DD4+AcjMycPqUcOY+26ndi15wBKSv0RERmMgCB/ijN5OJ6ehuHDhuHZZ59Fn759ERAQUMu3817u2AJegDu2iIu/JWYkHj6Mn3/+GW+98SZ27tmN1i1a8mpxa0Kb/wcE+qJH9y74661XY9AZ3REYGgwUl1QskQNA/Dz1eDq2xyVg6bI1WLRkJXIzbcgpzERedi78fP0w4c7bcOttt6FVq1YV7/f+VasW8AK8Bs2VlJSEn376yYgiW7dsQas2bdC+fXu0a9cOn37yCSIjotC/X29cNfY8nH/uQAT7+aKwsLDakrXo9A0MQCG595rNuwzQ127cif0HDiErKwuDhgzBI488goEDB1ZblvcC5y3gBbjzdjFHpQWZP38+Zs+ejZUrV6JP7z4YOmwo+lJ8yMjIwCLK3Xu2bcIN143BaAK7ScNoytslZkFpFVtaVIDS4urBTtmG8rsP4g4cxfyl6/Dt9z8h8UgSevbqiX889BBGjx5tFen9rkULeAHuorG2bd2KaW+8YUSS5s2b4/bbb6f40QPplJMXLlxoOPrI8wdi4vjL0KZZE/j7+pQD21aQyQXmCdGklBoUyu01IeIbPn7+KCwuxbade/HYKzOQkHAE7Tt2xOQnHsfFF19ck2K819i1gBfgdo2hn5K1xZmfeOIJ7NmzB/fccw9uvPFGI3JI/l7w4zzs3LQNLzz/IMZcPAx+vEc6blFRbgZsxQU6oP9PmwptpbjyrmexPyGZIlEbvPjyS15xpZat6gW4XYNJvJj9zX9w18Tb0bxDGwPyc845B1IFzpo5C0lJR3HwYDyef+yvGNL/pDrPVkxdd14mSkvqANV276OfqVx0Xv2355GclIIOnTvh/Q8+QJcuXRyu8v7pqgW85jS7llmyZAnuufUv6NmnN6ZMmYIzzjgDy5Ytw/RPpqOABpv83Gw8/NfrK4C7pDAPhdkZvwu49WoNwkMxedI1iIgKw84dO8x7paen272192dVLeD3+OOPP1XVBZ5y7tChQ7j22msR06AB7nvo78bKuGL5CrO4DA4MxkFqNi457yxcd+XocpGkpCCXnDvrd22igOBQtG3bBv783rU7AdtpJfX198Mw6su9VH0LeDn4iTZ67733cOjgQUy863a0pRrwu2+/xdw5cyDg79y5HS2ahGM8F5QWFednOwW3r58P/EMiCMgw+ptw1XgapHJ8QyKxLzENHSiD9+zeCQ2iovDGtDewYcOG0yjZc271yuDs6+TkZIwaNQoZqakYMGgQ4mJjcfToUeTSvySCjlFZdJj6+I1ncNlFQ1GYXwCBW9zbcSXpR1CHRDdA/OEUbNu9Fw3CAtGzLTUsVI9YC9GaQsvP3xf+4Y1xz5OvYePGHUBJAG1JhcgrzEcexaWhQ4bi839/WdPiPPY6j+fgGzduJGcejyzKtQH0D5He28/HF5PuvRdff/015lMlGEDFyPqtuwFZLEk2+pfYg9uHnDo0qgEK/UPx6JRpGHLxjbjrby9g3MTH8cJ7M5FLb8Lakl9INGZ89198P3cRgoIDkJKRjMPJx2jetyGYvitrN6xHLAeil6puAY/1JhRH3b59OyZPnoy43bvp9xGIfFof33rzTQwbPtwYcg5SZFmxYiVadmmHjRu2AZR9izKoLaHxxp78gkJxKDUXdz7wDMWZOOrEQ9CseRjgF4FDR48jNSMbrZo0rBUXL83LQPNIf8QtmU6/lhAU8N1++W07npr6pbFyBtDddhEHX+fOne1fxfvboQU8FuDZ2dmGQ28mB4+is9RZ/QfgoYcfgo7Po65767atBkhybQ2LCEcKfUdK8rJRWpBXoQl9aG4/ztQyT77wLnbHJuDyS4bj9mtGoW2LJhw0NNoUFJnrayuiFNOH5YIBvaiXL0F2FsUh0vn8e8CMKZj0z7exbNVWrF+3zujn5aHoJect4LEAP0zHqfkEcgB8MWToMNz3wP2Go69auQpZmVnGky8sJAx+5Noy/kRHyAxf2SIp4P6ycj02btqOSRP/jAlXjkQg3WF1rQVu501f/VGB255UXjAXsW89ezdGX/84DiQkUC9/EB1p6fSS8xbwSBlcoFRQwt69cWjdti2uvPJKbKET1ZJfliA/L7+Sm2p2Zibatm5IM2d+pVbM5aJz1bptGN6/N8Zfdi4XlL5OB0KlG0/xgIxJQZT5J44fiWPHjmH//v2nWJJn3OaRAJdPd+zuPUBhKXr06QU/ihKrVq2iz4hzS2QmF6B9erRDiYPsLYiUkLu3bByJsRcPpsYluFZydm0h5kcvRfmbFxeW0B23mwH4gQMHaluMR13vkQAXB9+xcwf8gv3RpGlT7Nq1C0WFZbKyY++XUExIpedgzy5tK2hOrOsiCepJ112M/r07VWnNPJKagcDAU5cIpV/fQ8erQg4oUYOoCOrmGxg9vfUu3u/KLeCRAJdMnUqdd3hYODUevuZ3qRP5Ws2VlS1LpQ+6dm5NWdyZDM7THDDkrbq8EonjSv24MS4ZG/ccMBy40kU8oLmjiL4wut4Z+TIIYs/+I9h56CiklvTlHR3bNDNBzYoH9ZLzFvA4gMvH+4fvv8cByq6Kbi+huCLAuwKW4iobxjRCowiq/WpJAqIfLZGBUY1xRq8ueP2jbxlZ77zJJcv/5+c1OJSSagBs/ygfiiaBYVHoRHfdz7/5mQPGHwpgDo+MMFofRe17yXkLOG9t59fW+6MKUpg2bRomP/wINRxM5cD/8vntTx9sVwDXgBg6oPsp1d3HLxB+9GMpLipG5zYtcCQpFZt3H6DMLyfbiiT5Oik5FWs27axk4vfzD0QJ/NGtUzscPJyMJWu2EeQBRuaXxVWzkZect4DHAFzgfuWVV/AhfU7yyf2kyivMK0A+3VElk/sSYCJ9i/NalJtfyNjLxlxglsm+1vHafusZT02+B//vzS9wkED3dwB5EBe6jaLC8fOKjUg6nlE+4DTwlEPFF8UI9S3AtQyLe/KVT5DL94kIC8O63zZCfjRekDvvEY8AuHKTvP322/g30zscJ1Su4sLwGn4ymLIhJz/PiCtrf1uDdWvXYP36dcY3xWouXx9KxwS8NC+1JVtpEWz56eZTnHMcQ3q3Rft2rfDMtM9xRCC2G0gCca/uHRCXkIQV5OIlDHYQSS7fSr+Wr+f8F69/8DUWL92AvXuOY+bsxQgLDjJJhb784gu89tprp/SOta1Tfbv+1Jf19aSmAub3s7/Dh++SyxFEE8JD8GJMNN6mMYfZdjBv3o8mP0lhtg9yS9IRSX+SpMQjaNKsGXrRLzwmpgEWr9qJKZMCGYZW88WcD7UeBw4nYe6S9ejUvgU6tW6GABqNfGi72bEtEbvjDqL5ObRUlpYZc6Si7MxrBvbtjFff+wZD+vVAo8hw5BUU4tWPv8W8BWsppBDQtiwMOLMnbrr8fMz4z2KUsk5KWTHt9dfRsmVL3HnnnfWkZ/5vXtOtAS6xYPXq1SZ/SQlFkmvJtR+LikQaueLXuQWIkhQeGoKe3TrgirGj0bJZI+w/eAQzZ81nlqp47NsbyuiZrli0i0l90rMQxDwlKrNGxMsOHUnB+5/NQVp6AYqKc3hbKRrT33zAWd3QnhoQR8toRFgwLqfH4gr6nDz79ky8+vjtiOT7PTjxCnOfxJgRQ/riIn5ysmV0sqEnF63RdBfY1aQJHnrwQQ7IGFxxxRVmEVqj93Tzi9w64CGBpuwH7n+AwQoJGEgtyEPUOjQi0N+j6m8O5e9o6sFvu/EKPPPYPejQqhkT9ETg3AF9GcnTExu27sLeuH1o36EjjtEPpX/fTmjdrGFZDpQagMKHasMWTRvSQNQR4UHBaNWiIbp0aIkLhvfH3Tf9Ge0o1zuqJsXFWzSNoWakGDO+mY886uCHnNWD0fpRuPjcs3D+4L4McG7I6KIynf2GbbFI27oHt/P8fqo50xkUsYJRSecwzYS4uZfoH+eujSDth3KKbN2+DZ0YJHAbQ79aEtzBlHvn5hWiAUWIkecPxh03jcPS5eswewHN9IU2nNOnA665/CKMumAouXgCjhw5Atln1u88QOthV5rrayaLi9P7U3c9gg5SI/r3osWT6STY2MpiVcyIe32ckUTvCddegPjko3j9/a/RvFEMbubCstjBiioNUGGxjUHPfoihe8DdrN+T6dlIocHqtZen4rmXXmAkUFtnj/CoY24L8I8//pi+Jb8gPCISN9HddMAJj7vj9OXeSnC1CvbD2NHnIyU1HSnHknD40GEsXbMbP/28nJbLNAwe2A+NGkVhF+Mg0zPSmVYtu+biyQkICeSOQC4qqFobo3tCgwPx8F+uZl6UFEx9bzZCgoMx/pIhFcpSNi1peMJ8mDyIz9PgfTgyFP9Iy8KG9evx5ZdfYtKkSXS1rb3+3p1GgFtqUZQv8J133kEwLZUjggKpMQkxdkZmKEEKp/ICgiiQeuQuHduiMVVz4y4eitT0DLzw+AS8POUOLF2xmSrEPFzxp2G44rJheOGJu3DfTX8iwKoGZ10BQw5VMeFheP/5+9E4JhJvfjAHi5ZvNJ6N1jOKuY5Iy8pGELU8gfJPYZ06URa/MyKUdSzB9999R43Qeutyj/12Ow4uy+PLz7+AIqoGM8nb/slodPY9tchl4C7hH5EEhPTLMq4EoAgZ9PHOYvq028ZdYBJk7otPZsjacUy64ZJyObmwUCmQfy+cSO9esXDJ48EE7Iyp9+PyO57BU698BgU5DKO4Iyqi9TUlMxutw4IQwLoU8eUkPF1I1eGKkEKsio/H51SL9uzZEw0b0hPSQ8mtOLhUggsYcrZr6w5kUsR9PTocTWilVMen81wBBdwwgiSacrgyT2UoOofHlcY4JjIKQSFBCCHHHz2sL5o3juY1xQwoKPv8XvjwoWgRFN2EGa0qWzf1zJaMBJp06xWIiz+CHXHxlLvLFpjEPw7vT0SMg8FIpVxGbVEURbMf//MDNq7bUGvR6veq6/+iXLcCuPyjv+PUfDAjFf1CAnAp9cO5REIOgZ1DIIvE6c4JCkBOQSk2UgvhR9VfNAHRuUNrc16csxuNMUP7defCsOwec+J3+icgNNqU7BsQ4vQJksmDONNE03uwU/tWVFWWRe+kM8onjRmvmnFglDpMLT3I+c9jHW1cHb/71tsmCb/Twj3goNsAXEBYu3Yt1jGMK5Cg/TtVgiLpLrIJbksAKOR153ERl15ShF+Xr2HkfAEKyaknXj2SQPi/c1qSFXMXc60kHksz6SdKGKlvT9K2iJZt2IVZc5ehb692VDNyEFKakWgVS9fZSN9SNOVvx2EYwRlJg7glVaPLlywztgD7sj3pt9sAPJNRN8uXLKWfRwrOo6jRnVxMJHBrUWmRwHAmBwCFAqzbvJtpi2OV8RJ9GVhcnYbDKqMuvv1p1Vy3JQ6/bdhM62ZZpJDWBYEEZjG/Fy7fhBsfeB5PT/sMrdq2xKN/G48WFJs0wwjg22MPmq1QGlDkciTVsTfr34niSzDFtGeffsbxEo/5220WmUpOP3/BPKMWG03RJJQgEawzTogm9j2qJd04muxfTzyG6TN/RJfWNxhtisAjEnf1J4iKqXGxjpkTdfiPjDxhtFxOY1qJxg0j0KxBBJKOpWPNht2Yu3gVLaqJ6N6pPZ554Cac3acLAvg+wVxAHjx6jEaiJgw63oxW4cGIIcAldjlSMOt/LgfLrqJArFn7m+HinphnvPLwd2ypevC3FoormL87gUaZQRQ/zqTsqYod5IKsctfLYA6MIpc/MyIYv65ajymvf4GM3HyjWZE3YXJGFiZMfg2TXvjUeO3VRRNYcrLllisz/XAagUqYXvnaO/6JEVc9gPF/fQaffD0ffXt0xrfvT8FPn/8LA/t0NYmDjqSk4W9PvgdFBsVTrNm6cTt603RfVQcOou7fl0agxtSiTJ8+3SMXm27BwRWwsGDefDodhaIbwR3FTpVa0FE2tQeqVIW3hIXiHY6An5ZswYYtT+GiEX0RziCIX+myuu9QIl6a8g9ExDRHSVaK/a01+83yjWZE8j8/icnHcYT+3i2bN+YzgrlO8KfmJhz/futx41kYwMWidN6N6C7gxxmkgEachEPJSKIhav4va/H9wlW4+MIB6MmF5pdzliI8IBIdKOZoTeGMdDSI7zCWSYOm06Hr18VLkJiY6HEmfLcAuMzp4uCtmd/kTGoZQgiQZBo7qiIB4EyC7HaKKrM5ze8oKsRXc5bBp5hZqkJ8MOH6KzBqxEDjAVh1Sc6f4sMyA8MbmjRvXEXSj6UxXvzwGwYsHKejVVM0oZU0igAPY0BEREggAjnzbNuWj3b0KIymb8kignrnPm5YtSkWx5LTcfF5/XHzmPPpR+6PT776EZFRQQR41d0n8A+k2vPdnHwE0lVg6dKlJouX8zd2z6NVt1A9qfPixYtRSEA3oXjRiZwwjxxT6sHqSFcM4IKzbYQf1tCH4yBBtpqc05/fvZnoMpwm/hIajk6ZKH7k53FHttWb6AbbBS9NvgPfzl+BRUvXYv7iNcjKyKfuPRThIfQo4Xsrs9YFw87E+cP64YN/L0ROej5CIwNw01UjcfO4EWhD7v/ruu3YnXgct9LzURxaFsyqqBXLbctPiq0Yq5Yux1VXXWU2pK3qHnc65xYAVw7BCC4s23DKbkb3US0s5YxUE9JVzcht/8wFnDj1EXK6TTSBHz2aROOiayEnl9N+KJ2pqqJS+r3405S+Zdd+JKVl4jYC9TpmvrqQXoEH6GeybVcCA4kPY+/+QziamoUS+pGUFPlQhAnBeYPoOUgPxzPp/HV2z04IIyeW3P72J3NRSheEkVxDyCpbFemsrhlJMeW9jALE7o0zqSaa0dfdU6jeA1xeg8tXrEBbpn/QoiuU8vdxArPqrq/YvRaM1RjdWMbKzGJqK1KQzX0tZdl0RuKc7329EPdPGMN9M8vUfPbX2TijFOVmGh+Y+yeOxU0Pvsog5yDccOm5aM6ZpnF0JPp372gid7QxrJJqWlZVmeTPo5usP4+rHrK0KsTtpxXcRZkDYygB24UW2txqAK73Ud2GcEaamuFDH/JsJjvaC08CeFWLcLXPH56UQLOUXDeIwO5BcKaTsxbWCt4nqygw9aATlg/Flt3cw/Io/cClMgyKbnryohO/mtGyOHfxemzauY9OUC6a8QQAFfX2zvOT8Oiz72H8vS9gxZZY5Ev0ocuutCpahCoNhDay4v8mykcii8h4qbCc1MwcTP8PAy+ycnBPRAjyawBu3S+Ad+ZgiOSgymYaaE9LFFTvObgAHuHHDVcJlDYEhYw61U3d6nhnJIB3oZgzgFoObdK6j9E97VtWBrfuLaDV8/lHb8E9/3wTHz3/d7Ru3qhKnXkUB87sj5/FbX9/EZdPmGICG3p2bY1mTRojggtdbQAuOEqdGE7tzsTLLzBaFj1LZ374aTXWxR7B1QR3V/+AGnFv3WtRP2qXtjJD197YuLKZgrOEJ1C9r+XOnTsRSH12FFlfDAEuMJwOyUA0ivJ4HuXw5Ws2mKBelecbGFShWPmp9OvSlgvCszGV+U6O07PPPoi4wsX8Q9ef0aUNpj75F1xxyWC0a9mEIW2p1JZsxKwfVmLh4nVYT8tqEtWJXRjDGcEFrkVbY+Op4VmCkMICXEL5PK+G3Nu6X9qUThy4eVSnHks9bpIFWefc/bvec/D9+/ZTxRZMTYGv2dKvSGz4NEgj/ixy20GM3Zw9fwlTIV9KbtsY/kHh9Cys6KuibK8Txo3E1A++wcezFuIv11/K8LQglwaVAkYSDaRVslvH1iYHivKG59AXRrOPUsBF0Ze7SeMGaMBvjVT51+RSszLjP/9FPHXiHcnZG5Pz1raKmtWacvAzyzNjS9MNwCMiynx1TqOp6sWt9ZqDy8CTePAgbAS3RAsZd7S35OmQwCPzd2+aubOZ2uGbBUu5w0IQuTNVedyixJGacrF4+7WjKc4cxZc/LIGtmhaV6T8qJBhd27fE4H7dMJIalZGD+uAcRtN3bdeS256EcgcJ6oAIylCa8hU5v5iGqBAOnATOAl/Rb12zTG2pGdvIRok+n16IWph7ClXTHX/sZhDAj3HnYbG0RgSlVN+nB2+KIqyypvRDWriGh+PF1z6keZwpJggqH9/KE56A2KVdCzxw6zj8+PNqvPTRbKZUIweuhgR0+aOc/JSBWuWJQuln8jLLevm9rxAUyufS+9GPevXvOAu8SHEovJYytKJ+lOu8iOXke1Auw3oNcHEibd6qqVdGj5qozVzhzgL2HgL7EfqizOMiMpAjJ5qBA/dNfh42clD/oBDmGgw3YLcvR/J1d0bMv0hDzqJf1uCa+6YijeKHyPI9sb/e2W9zHesg995YLm7H/uV5TH3jOzRu1BiRbbuh2blXI7hhczA+CXMZVT+ZaSykt68pL4/igNC12cwooE2sPIXqNcCVsUocj7hg6Jlh5LXuNzWAdNrx5KYz6HB1Hw0ysbRqRhPM/uHRNNX745dfV+P96bOQQStnEJNg+jssOPVQudr27twGH730D2RnpuLy25/DzIXLkZDEjaMISqkS7RehArT+1nF9FDK3iYvJ16Z/j5vvf5HbiO9HwyahCGneEQ26n4Ng7jDRuN/5CG7UkvlcSrCe7ziFgyieA7yM57uuumY1KR2VUUCxnIrw9xSqPOfWo5rLMGKROtmV45F1jf23uJkfQXaYHf4LgfsLM0gd4ICJCY9CWGNGzjRuSe1MQ2Tt30oxYhumvfMFDhxIwuiLBqFnxxYcANSXE1oWWJR6TR5/xyi33zr+Unz9/RK89v5/8B2Tbp7TpzvOOasLWjJPShiNLtq7RwMzgzrtlNRMbNt+EDv2x2P99jimjTvOhFvBxpyu2hXmZuD49tWI7tQXAaHhaNhnOFK3r0Ru4l5sZyVep0ytbF2K4qmOW+kd/biWqKmV17696uvveg1wyxiixhcYqvPLsDpJ4NaAmMPtSv5LcMebaHkbmrfphqh2PRAU2YC7CTPkiwMouuvZ5M75yD0UiznzfsGKNevQiiq+FvT8U3YqJQOKbBBpdODfzl+G9bGHaJUEc6n4EciB2MXAhO07E2iFXI+I4HD6njBPLMFYWkLLYk4x0tKysXPvIYbO+aBlixhaO0O4WGZecpbRhdbLoowUHE2j2wDBGd3pDIpJwWjYewh8A4KQHb8D+3ntmwT5fdS8KMijKm6uVBOaOezbjbe7NdVrgGt3MXVYIHvVmdO/s56TBiKWi9O3mFV2H2XnouJChMQ0RUyXsxEY2ZCOViEG2AK3yI8gbXb2hThIsSM7LRmdug7AZZddZvaN35FwEKu2xhs3VG1zkswtUS6ij0hbAm1NZiHWEekhtIpGUoV+jH7ch3JT0K93e6xct9OEx7Vr3RJn0M/kbxNHI5iJez6duRDrmLNwEEF+HbnyWXx2GkH5PIOjNyUfgi/FpigOQj+CO6ZbfwSERyJ91zoc4yw0JSMHn9MLUR3qCHJxdgklCrrW4NLHU6he1zSS7rHiRjLVV7fAFNcOIbhnUtZ9KTuPIWvkZgRxo56DybW7c6CUTfAWsC0AFGSnI/f4UYS26UqxogQb16zGRSNHYvJjj5VvVpXG/NxPPPkkMhYtxCsNG3BxSpdbyrv7ODPM5kJ4OvMgSjEX6M90bs2aYN3C+ygKhZrBKT+Tw2kZGDPx/1EjlIm7qXb8K2MpJQApg3k4y7mIOvIVWXmIVCqMxP0MQ2uMkKgYcvR+RnWZum0V0mn6X0Uxazh9ZxwBrrrIAU1aJkUFBXDQeQrVa4CLe7egk9WBw4k4UMXCSbL5XnK5z+g8tYvpIloQNP6hkYjpex7CGjbjACk82d+8toSRQMXMlZKXcYybvpad8/FjwnmKCAWpyXj08afw1cyZxrf6nP4DmFwzjU5M8biMrq++BJGWfVnUZcsoczeDn29lEp/5BOeLWb5YuHQdvvvvCgxi1L5kcg3Qd//9X5xJ8eTVZjEYxAVsNjltAj0R5XKgYdeQ9WxFFWExVXyS3fMoshTkZCCyaWtqVlpwrcA0oseTzULyZEUq/jKB12yjQD+mxqDnpadQvQa4ptrW7dox8uUQ9knwdUKH6Hz1Nb39ltDq6MPfIZzew5q0QlS3AQhgskoL3KUCNS2V+s6lKEI5xaE0Ls3IAgMbNEbLvgMZ3JyAhx57kpHtftxapAv2MVomhotDcd3jHEwWKV2ydNAjaW0dSe75Gd9lKd8lbmc8/HcfhIKGWzVrgHaU2ZuzrAMUnxhvYYBslaHZoCE/R4zYVMafS7lnfRbFlpCohkY/L1VpB8rsZWetO09+p/LdlQUrlEHI4dTvewrVa4Crk5Rg8pef/otDXBQ6+mj4E1gC92ICKpTiRUBkDCLb9URk6y7l/StAF+bl0LU1m1w7x8jf5Sed/RBX5ZYiYa26IKRxaxSkJ2Mv9dbZBFwpI3MyT8ju1q0CnEzlCsiIJpiVeUqL4W0E28MUsRpRf9chJ5drggKs5nYq3Sk+2KsTNczUSVEcAImsjz2VKCPXUSYD4sAUuFvRa9DZWkQDTAOHzotowPTNnmKmV1vVe4D36dOH6day0YhcKZngakoQWVxMsvBuiiRcNiK8WQdEdOyDEHJgydn6FGRnUA1Hg0lhXvXAtkeWfpPDywErpGkbszgtJEfX8k7R7M5AplskBx/nLJJEsB8nR01lGVG07Qv4QQSffNFlkZUrrP38ITGFWnMCv+yXnmOIz9LW4nkE+EWSva2Kl50t/1dGsFi2QxhnkeYMdgjmt6eQWqxekwBeyAWWKiLg2BP7FR1pRCkhqAKo3w7mdG4WkURCxpH9yCP3Lc6vAde2L9TxN8vyo6gTyG2/iwV6x/Mn/hb2BNoWFEPG0cdEoJ7DBe98qiqfPZZprhK3kT+N/lM5+lgxQ8rOZeyWFZk4Svn+OQT5WdTLOwvz0OWSv7cQ4A2jo9GhQwezuOVhjyBX/VFvKt+lSxfTYbRpmiTwSkRpkdK1daScXsjEPjnHDqMgi34rIl4TEBJRe65ddnflf1menhFHMcA+yVDlC8uOMA05U1Ok44O9+/DwnjgMGTqIUfaBGBN3mDm+6SZAD0NZKpMJakUnaQEdz8VhgKMFlYOrmIvgThR32rlwFVZrHOCCVcn0Q1hG23btXL2WWx6v9yKKemXcuHH4efESbCCYLwlWUvgy0ugVZ5tOE3zhce4STKNJEM3vAnjZdH/iwjr4iqGVcUdeKoeZIOVcVtD7SJvzyjGmjxgyFO9Tn96D2V+bN28OZebSRlnz5i3Ccq4JjEGGoJfWREEQ0dTQyNhjL4fYqP0pLMpHP1pHXXWk3mYBHbRiKIBHNYkxHLwOqltvinDVLvWmAnrRsWPHYu53c5FO3XISxZFWFAM0oesjmXwQo1l+IxfLPpqAMPp2KAYykIDMTz+FfCd6oCNJTKERZiNhdoDPb8EBZA9xuQTkcjZZy0XkO5m5yAoIxvCOHdHvzDOZp1ym+wAcP850zUxYf/7552Mad0zrMno8Ytp3RnFuDvauWYrYX+ahKDUJQU1amwEqcaWUM0YxB0N7bsUiHb8zsvH4Mi6yg+ku24uDSXv4eBLVexFFnTV48GDEkDulscPlMy3jiUVaaEozYaOGoZBiitxOy8nuuvJjp/jDh9w2hCBfQPFCizq9gdW4O7lG+DA5BR8FhKPTRWOpVuyDubNnY9OmTYji9ioKQpg6darxjBQ3D4uKRmSLNuZNAsIj0OOiMeg87CIK6FRCUhtkiKKL1g9tmA5CCYCsZ5WdLPtX7xDHZx+RhYeD8NzzzrM/7RG/nbVLvau4ErwPHzYMSXRx3UTroZUqWRWhiwd6k4O3IgeTASeTajWR9n735+KwzogYCqH4s7CIm0FJW0IAyoHrXwwWfiYxCXt6nIXz7ngIvS64FN1HjIZPcJTZ3jAtLc0kqL/xxhvRlEYrcfMQLlj9OCBFRttDLVEe/WF8whpQtLImXUb70MqqrUuacJbSbOVIWo8spK9NOHs5IjDMMALHa9z9b7cAuAw+YyimFBMEMo9nkFtZFZOo0IxGkpbkcoU0x+ccjiOww40zVSCtmbUhG7l/CdWKNoo7lYlR8ZLvCbjx9BC8nUESH9AlYC3N+G2Gj0b/cTfTalq200LDdp3Q44JRWLl6FX777Tejm5Z/i7i59p33Ybar/OwyzYqek7J3Jw5uX0/r68kwMxtFId+cdPq9+DIe1artybcS907hNauZwL+I8aVXjL/Ko/TfVktUbhnrTD361oJMW3X06t4DG8nF11EDYSkMBfAG5NZKKaFE8gVJ8SYft6qn+2pMvLaY5vbCrFSmZIuiHG9xUrsSOLAi2vcxfteBHHRM+4NuA89Dr0vGIYiBE6Un1JglFKVa9zobDVp1wEcffcSdJjLMZyXTzymIQypNrRNEBQxQiFu3kk4k0XS2Oqm/LqRGqKFmJ9bLWS3EvddQ9pZRKZ35UMZff53di3rOT7cAuLpLyWwuungUAihzLqdowB32ykmd3M8YUbj4ZMdnHztqzgnglpNV+cVV/PCh/OtDnxDp053FZ1q3RnQfxECFzohq3AidR44xwQrWOes7rFFT9BlyHn3Bd+LXX3+FsnNNZwZYJcgMojehL2ccP1pnjx88gMTdcQiigcrSoPhwcBVkHEcEObfSsjmmyVCnZlFMWkruncYBc801V6MjF7WeSG4DcPlXnMdFVMd2bbGWC711BLpM1CJhvQOB0FaLMWowshJ2Gg6sQGJXe+OYGyv9w/LodFXKsuXH4pIof+ce2s1No/yYW5Ccm4PCkQrzc9H2zMFo0qoN3njjDYwaNQqP0UNRWWe144QGng8H5uYfvkJ0x84nNCdlpZRSNeibl4m+NM/Ll8VuLJsLVOu1LOMw31P6nHvuucfx8R7zt9sAXD3Wq1cvDB4yBNrC42PKv6Ly6ZvHhnCx6U9A5CcnGMD4UozwpfajxkTA+gbSzfWE+FDVfaWFVAeSy26e8xWS9jD7lhO5XRqS3iNGYfny5di1c6dZZB7jDhWlvtTIRDXA6s/f5B5wHIT0fbG4N1eZyKOTFecS7v3J3SA4COxJHZrGY0u5uDycnYOxY8aYdrG/xpN+uxXA5UQ0duzlaMJsUYnkXh/TPVa+ISIZS+TrYZSE9D0pyEo3C00//4oJfarqfHF8RfrYDRunl8s4E9q6BwqY02TvmiVYM+MtrPnsbaQQ6CGUry2S96K4eCOmgft0+gxkZWUhmRtp2bj4PbRtAw7u3omQlu1PgtvcSOslXQyU6KgrB6i0J6qh9OBh/MhKuowi2lquRVo1b4ZbJkwwLrnWMz3t260Ars7rP6A/LmRAQji57Ax6Eu7igk4AEJ9TKuEWtOj50GU2l77eRgxwooFQOc5IY8VE1lOVVyUR4AHRjRDWvjeC6IxVQHN64q4tWDHjNcx5ZhLS4uPKbw9gBNGQa27Fb+vXYdmyZcjjzsWBXEyu+XKGud/4zpy4WtbXwmOJxh3gckYOyVtSYthhaks+YoTSSG6BMpYxoe9w9pLgEkXxyJOCG8ob1e6HT16ePIndi5KSkjCSIM9jssnG5LjTuGuC9OHi5h/y2LdMuxDT8QzEdD4DuQxgyCfYqyXeW0q5WQEKkW27c6NZJtCh+b9aokih4ZV/9AAtkUep1+Y+9TlZiGndET0uHIO2/YeiiK62s+6+Ft1psOrY+yysWbmcOc4Z0xnFhaU98R1y9m3BQVo3F3BDqh0cvF9xEK/nYjKS/ighHFhp1JiYsDQOBj8+u4iDa/HSpZDPjieS3+OPMzzFzUgLzlatWmHWN9/Q0sNFIYHRi+KJpnNpV+bQNyO0pBBRHfpQ9ZdnonfKZVyHthAgaSGi3E1rKA1FslEGRTc0MnVRXsWt/8pv5fM4PZR9ThwMYLynX1g0y/E1cn9BTiYOrPkVe1f+hFKKKgXU4Sfs24t9u3bwHbkDc4NmvJMvywUrbfLUvZeggNy7JDuNM5EP1lL8+ZTBxpn8bkqti7i1PCvfoj/LSy+9ZAb4/vgDiD9wACtXrcK1117rUbGYVl+4JQe3KjdlyhSzZ30Tdv4d9FMZykWZjB9j6J7anmFbLYaPM9bNHHJWgcwZlRYxnjJhF4LpTy7M6u+G3c6mxb8QOYzVLCMBkU6uHAgSKSRKKOLG4JMANWKGpUnh+ZIiDioGMctZSqQyFURhHiDxRpybGh8FUdp4fynBr0WqjddZXi451Mm3a9MW7Tt2QP+z+9MjcQj69evHIviSJyg2Nha33XYbNq1dj+9+nGO0TNY5T/l2Yq1wn6rfd999iIuLw08//4wv2fHKz9eW4JO5RKDTIq86r0I5UfnRky8vMY4OVcG83s+EtCnUTSJHKcGqsgy4eayQfteS+QoZCV9IPxGe5MzBI8bIUzYQrBYOoLwdIM0OB165/wzfs5CLSA0YvZsWrAVcNOZypgmhvK6g4UBm2brrlltw7rnnGgNXNP28i7io3rVrFyhyonfv3kb27ty5M6644gpsXb8Jn3z0kUcC3K05uMCxdetWPHD//cxNsgvdGQD8L2osbmFie1kFG/a70ESnZ6UcpnXTubghTpx3ONYEFpSJHcpQxTzktJYW0Hc7t1ScmpE8ipahL0n7Tp3QMIa5UqjRadqiuQGaFno6r8Q7SlakjFwCYhYHQXJKMrNYxSJ+/z6zo4MP9fT+ystCkSifVtcAehuO+tOfMGDAAPy6ZInZqvyhhx7GhIkTjGlfVtBvKIppC3NxazmeyTdHzxJpR4cz6bXYonkLLFi4wIT4WQPME77dmoNrupZu/PEnnsDkvz+MfclH8QyPteL0f1gcnFmjfBo0MnK1Y2dLw5J7eA9lXg0GOj+FMnKdHLqUKsYIplYe0L07zj77bLRr3x7ilLKk6nla4OlbANNHv0XWt35r4IkEdn0OcxPbH374Aa+88xG6DRtrNDVK7LPv+3d4ny8609Bz5ZVX4owzzsCvXDDGMYm9Bk1CQgKeYN30BHkjKj5V7rf21J7v161bN2TQHVcW05tuusn+tNv/dmuAq/cEshEjRuCBRx/E88/+C7vI8bTZq+LPFc8oIDkjQbAR06SFNmxKkJX5hRQT3MnrF+PpR+/FxZdc6uy2Wh+T74kcrFq2bMk3ooR9AvzGZ517dBZQDEo4GG+0N127dkVPgnW5tCycAZQX5umnnzbfKcnJ2LdvnzEWCeRKDWENsgsvvBDTKaKsoBryhhtuMMdr/aL19Aa3B7jVL+KAhdQ4vPbKKziefIxydbBZtElGdko8nkOtRSGj7Y1JnwNFcZfZFE2OpaUb3+26TIEWyg1ozYKSmhpF+uelH4N/RAzyUg7h8CFaLinD63kXjhqFHylyyc22E8WhbKoF35z2Brn6HoTTG1EzyVlnnYWhQ4ca4KtuElHE4ffHx0MqVPmcewp5DMDVodddd52Z2l997mVmkWLWVwYMCExk0S77WzulWVRAzUcBddipdIFVbvK6BHgQF47S5OSlJaMwkPkJmcKCwowRYdI46yikTSkfBF6JO8nk2Aogljr0iX8+ab1ipW8NDIkoYVyg5inZZ0qKF+CVWsmNDmgj1KzMLDz68EMIF7hJknP5Lz9lsrGOOSVdQs1HYuJRMxsIlHVFWoRqy0KFoFl+K9LgiBTxc/ToUQNwiTICuIAqzYmAvmjRIhzYv5/qxyJEUKMiUUY68faUvyUCSZTRfcVUNWoW8yTyKA5udWyPnj2QT92yS/HEutDJdwSNSMe4YKtroGiwyFhjT3Ky8qNoVEw1oUSL7lzYNmrUyFyiGE7J69KYyIsyp39/Mzy1yBWgreQ+8m/RsWBujeJP2dyTslqpoTwS4FbimxLGOCoHYW0okFP9UYJNC8O6JHFl7UPvSJpd9CwBXCSwiiQmSftiUWhYGML4EakscXfJ6ZLRBeqjzN/Yo3cvNG7sYP63CnDT78ot6qYVta+WJVqcUFiQkSv+pxrxRAXwBqUwjj8Ub/bJtC/zdH9L46Gc4vnUu5vIHT5LgQ0KfMil/8wRJRil2V2yf6RvMPZTJNEaQBzaWgtIHBGJs1sqStV1FU316VmZ6MEZQBzfk8gjAS6NxamS8gZK7s0kYOqSBNJwcuD8AoeBZjh4Pg4z0kdglpEoNCbC+I8vWLCg3Gik4wK4tCiK3mnTpo3h3OLir776KmTtVNyqp5FHAtykD+Y0Li1KduI+OmRxsaiFpiuVoR0qTPABI9tlIezbt6/dmVP7KU4rEteVfJ/MoOYKRMumD7UrmzZtpBtAodF1a1/QdAJXiYL0LXFkEC2Y3bm4lOytsrQI3bZtGxbM+REbN27E9ddfj/6U0z2NPBLgAkEUg4Blns+M22TiK+XpF9SoBfufDk60LrokDoxgTvsJ1CnXBdkDPJTGmeLCVOZVIehPaC61wwQFbxw6eBDNW7TAxRdfbNSDkrd174L5C/DFF5/jGAMlYnndrj17jMwubn6Q96QcSTKJkeg16lF5wa2+8UiAy9J3MyNd3iEHjCLYA2iCL2ZC+aL0JIQwLbICisUFnXF0LeBCyWm3b9thtWGdfGvxGNMgCkV5O1FAP3Ojfy/INV6J+Vxk9uJscT8NPMoeYG+OlyvC0GFDzYwiGV2cW+KIMlhdffXVRl3YmQahxk2a1Ml71rdCPBLgkne15Yi44WtTX8V/F//MveHDQVsisuOYgC2iAaPiO3Cxp12HKy9AA7mV4IbNm+qkry2wCuBhHDjpiQeQT+evwqx8RDen3zlnkyhmupKIId22taC0Hi4wqx5mQFoH7b41ID2ZygRAD2wBAWsIzdmzvv0PVq1ejTFXXG4CI+QPopQMWbvXEeybUJiaaJysjKaFMroYu1R3csPVAq6uSECUA1WLVi1xzQ3X46V3XkdmchqjkALx8YzpZrsUR3DbP1v3O/vYX+OJvz2Sgzt2tEzZSt2gXIFffPEF1jLb1BFqLfKZXKeEpvoCRuFLRvdnymXFc9oYDeRPBywt3pQssy7IAviIESNw++23m8Vi8w6tkUUVoaW3r4vneFoZXoDb9bjcUXv06IHt27dj8eLF2LxxE7Zt3YJEmsl9qKILphgh8pM4QW67YvmKOgG4xBPpt8XBJZJIKyK131DmW5QbrdSSkr29VPsW8ALcoc0kuij0S4CS9XD/vv3Yy1hJRcscTzlGE30BUimaxO7eg7nff09Z/gmHEmr/p0QPmf4FdMtHXIAfcM45mMmMV3uoGZE53ku1bwEvwF20mYDeunVr8xk8ZLDxvxZn1WJOgLuFIWO76KIqOVxefqdD0svLHK9n6hkSVwRwRcLnUd23e0fdamxO513r270eu8isTUeJs0p3LtWbTN2K5BEoi6lh2bBhQ22KcnqtpQsXsAV0ubhqIGngNOLzYvftMwnynd7sPVhlC3gBXmXzOD8pWflPjJMMtQWYtGvOr6r5UXFugVuiiiWi6G4Zc5oyOEGzhJJyeqn2LeAFeO3bzNwxevRo7khcgJUrVhjx5RSLMbdpNrAALllc3Fugl5iinOEKT8tk0IOXat8CXhm89m1m7lBkjaJp4hn4q/wjMsKcKsnjTwCXW6uCMZQUX6KKZP1EusTqeISDr/ipPsvT7vMC/BR7XB6Jytz6ufTma9eeFsAtA47k/FQGMnzwzrvIYXq2lEN0HaDn4PUMFPbU/N6n2D3lt3lFlPKmqP2Pq6+5xsRKKmmmtB+nQwJ3KBMMhXHgKP6yT58zMPnpJzFv/nz87W9/Kw9mOJ1neOK9Xg5+Gr2uaPUG9EqU155SNigWsrakRaWibiRnBzFrVQhDyxo1a4qXX33F+HTXtjzv9RVbwMvBK7ZHrf6Seu/GCbdgL/1S5nz/A7Zu2YojR44YDqwFoiuyrJUC9iGmhNAAkeVSxxV6VnhCVejqfu/xmreAW6duq3kznPqVS5lpavw118KPiTIbM3Vbn35noHnLFiY1gzz9pDfXItHSlOhJArMi5RWhk0VxJJkursfpz32QC9ad3OkhhKLKrG9moT3TQnjp9FrAK6KcXvuZnCOXXHoJFv+8GAmHmaQn4SCKmatbAcTSlyvIV7K1HKYU7iZ3xGLuG6/oHAUlKD9hOlWADLPQKbRs1RITbp3osf7bp9kdlW73cvBKTVK7A7I6yggj91kFAsfvo+/K/n0mwiaZvizpjH7PIKcuOiGyMFshQhmGFs6k/BHRUWYAKBVEUwYktGcspeR6ZYfVotNLp98CXoCffhuaEmScEdgle0ujYlkk9W3SK9s9R6mSlRpZum/J8fpIVSiOL7cAHfdS3bSAF+B1047eUv6gLeDVovxBO8b7WnXTAl6A1007ekv5g7aAF+B/0I7xvlbdtIBXTVg37VheihaYMt5I163tRfR3DuMqLb23OcYc49q6RInptd2hPAfrirTI3bJlC+bNm2e0O4o3HT9+vMflJLTa0wtwqyXq6FtWyXMYaiativVR0dZv+2+5wmojqboE+LRp0/Dss8+Wa3KknXnmmWdMbOegQYPqqJb1p5hTArj8JvLzmH74FLVZ8sSzEmDWn6aq2ZvKeqk9KRXDKaukOLfUh85IYK9L0h48jz32WIUi9Wz5mGtvnoULF5qsWBUucPM/Tgngc+fOxaczPjV73dS2fWw0ad97370YMWJEpSQ2tS3rj3i9wtqUgkLAWs18Kw899FCdhLXVpK7/+te/XF4m0Uhiy9133+3yGnc8cUoA19QqU/SB/QdwIJ6ZmChvVkfi2j179GR+vebGN8PdjRkSDbT135///GfsYNBwTdqoujas7rx2gXBFGnDKKe5pdEoA1wZH2gBJnnObN282HEt58VyRdibQ1CmnfZmlm9AsbQXaurrHHY7LMqk0xmII/xcA12B6+eWXnTadnL0UheRpdEoAFzfWBkj6KMJcjkSPPPKI8Y5z1oCTJk3CuHHjnJ1y+2OW+f3/oqLa2fmnn34yTMfxedrx2BNzq5y2HlyLRWU4VUe6ohZM++ul378F5Jo7Z84cXMtII3sSV1cSfDEmT6NT4uCe1kj1qb5yz/1k+nS8+dZbRiwy6yU6cHkqeW7N3bzHlVPF2pTKzataZfVOW0SpsnTvSW8L/I9b4A/LweVHreSX69atM9letcvY8bRUswekZE3lDZTsr0VudZZAlSUTtjQZMlLJ8CHzuf7Wt3TEsvLZ5xhUNqkt1BBtZEplBTQU0uTegEYcmb5lfWzK8LTfQ9WpiHp9qiNpoWRUsuRq1U8fY4Rjvay6Kb+KytP10nxpQ1hHksFJLgW6Rx+1j+JFrTKUdKgPd5jQWsqqs8Lt5BKg1HVyTdBzJA4p8Hr48OHmOda1js9z9beep5TUyu6rLRLVL36+foxTDUXbNm3RvUd3s1eo6v3NN99A9pinn366yuDsPyTAtcHTCy+8gJUrV5rOUWiXAnEVFaOAAC1oBWpNwYp8eYBbe9x0882V2k2dplzbUmWqE60gBP2WXlgfC/xvUWa99NJLTUdpofb666+bRlZHq8N1nZ4tQKmBteeNLJZ1SXrGp59+infeeafaYmVQev755w0ItYiUDtyql1VP61vAVzs9+OCDuPHGGyuULcOP2tm6Vt/25aiNdL/6Q1ui6O+ff/7Z/B3PfYrUPgK37lP7SB2p9rnzzjvx17/+1Ryr8EAnf4jJfP7Z5/jwow+Nrl5/q+/U3zKWy6YgZYbaXn2uASQjmuwLt912W/0BuBr2vffeM3vRWO0gLnAjE9888uijZou82bNnm0qJU2mEi+76y1/w8Sef4KuvvjLXWPeqPDWCMkTptz6uSOWp85577jnTec6uU6PrOu0yPIF7/Kgjbr31VmeXntIxcVnNSkrd/MsvvxjwOBak9tDnggsuMHaFNWvWmJQV8oGprn56f0cS9929e3eN2kcgnjp1Kv75z386FmP+ttpHBqWHH37YzBrVWU5lP7n33nvNduRWoaqfVJpSe8qOoNl0AfPDvMSBrHdQJjGLNLiqJHaY7XQ/9IGwkaMIPU4/33//fbXPoBhgu+OOO2wcqeVlsMNtV44bZ4uLjS2/n6C2kWPZyMHLr7Oey0axEdDl16peBKFt69attptvvtlGDlDpHutebslno7+GjbODjY1qo3HKRnHERqOUy3v0ftwVosLzHNvys88+s1EscFoGzfg2bhrl9H4dJ+cy9+k5FMtsF110kW3mzJk2zmgV7lGbLFmyxDZ48GCnz1EdKT7YOEtVuE/vqrIIGNtdd91lY/S/y/s58G2T7rnHvFMr1kdtow/35bQRkC7vY1KkSs+02oiMx3b55ZdXuFftf9uEiTbODJXuU9+OHTvWxlmi/J5Zs2ZVus4qX99/iEWmOLFEAnFg+xHZuFFjjPnzGEaat2IflZFEE1nknCXZUYap6VSRibNaJK4o2VNcZxgtsPrbGU2ZMsVMvRMnTsS///1vw0E1Fb/22mvo3Lmzs1sM19P5uiZxqaV0nBJH1tQsmV8iAgeLMf2Lw9mT2kQejD/++KOZAezPVfdbZSnH4uTJk03GXIkZzkh69K9nzcINnE0/4WypGUa7YEicUpC0K9KMqPo4UhHFPvnGaEa2J4khf7rsUqd+Su3btzcyt0RJa1uX6tYrznvb/om/82+JBb8uWWL2xnF82S5du6BXn8qNp918NXU5kmTF+Wy0Pdx9wZGaMw1xD/rCCAzOSA0mWfaVV14xke1aMEnOJYcxjersHgFQsqAlKjm7prbHBIb5nI7l2qDfsgJrEGmXtchqEnCqDrruVEj6c23hIoA5Iw00ueFqraKtVSRna1GuHd60FnBFWjTKo9KRcriuktjhSMKDXEBckZiNHNhkRReRS7u61Bz/nwNc+8/MnPm1WYk7vqm0JQKzI1mLS8fj+nsn3VR37dpp5GnH81qNu+Lgf6Ecz+nPKeegaIAodqgz0gJUm7DWBalzxYU12xSw3C+//NIsDLXTQ03J4mw1vd7+OoHYVfuIc2uRqQWfIw0j4J31k66TXC4535HUbtud7FwhwH7NbVukoXFFWqfcwh02VFfhpypyPh9VdUcdnhMHVE6/efPnOS1V3ERZoRxJXFirdWckLh7LHCUSdVxxI2f3OVOfWdep47WZqlSWjiRQSstzuqRyNGX/44EHzM5q6uQhQ4aUq+VOt/zTvV9qWUfRyCpTYo0GoTNvRvWxs/bRcVtJZdFF7SCtzlVXXWU+XDuZxbTjwJN/u2Y4zTpV0f8U4FZlpP90RZKnNdp1jRpFpGPOGs0qI4Ep0JxpDKzzzr6tsp2d0zFXA0rnqrtX11RFul8yrTikRcoRzkWjS1BZ1/1RvmvbPmJS7Tt2wKHEw5WqoL5TH0pc1EfrrTFMVa2PdsGTmlgipLQv1dH/VEQRwKuaijRFW/K2OIQqqo+yP1Gb4LJuzhY1Li/+H54QR9RMQy0TLrvssgpvIhlcnMxdySwmuQ2MI2d2Vl+pMd6wWgQAAAeaSURBVF988UUzo8kg98EHH5ity2vSz1VycDW+5KdsWq0kg8qS5WqR5uzFqjumFzxQhR+5tB+apmtL2gbQlTagtmX9ntdrUS2tzxNPON+KkGpTfPfdd2b6/z3f439RtsQ+BV1LFNNCtKakUMD7adiT3K91k5QAVZFLgMtwoOlBMrK0BFrwaZsOWacUsFAXpKm5KlFDU/S7775bF4/6Q5YhbYllgXT2gsp1qIBhaS6q06A4u/+Pfkyz8VNPPWWswrRV1Op1pRIWZxeTrCrWwKmIIs4iIMuqKAd6yYPqDOmq//73v9fqRaq6WFO0ZClXJNnbXi/u6rr6elxm7pdeeqnKWWrRokWYMWNGfa1ile8tWVoWy/fff99Yp/V3bUgaFDEAuQy4IqcA//bbb7Fq1apK92ihpylTe7rXhlyJC5K/2rZt67IoAcBRN+7y4np4Qr4s0hZ8wX1+XJGcmmTgWb58uatL6vVxgVqaEBmEhCtJDRIxa0qSNMR8XVElgEtskJeWKwW61HCO04lWva40CeLSrjZQkk61qt3J5E3oTIfqqjL17bgWWmoDeSZ+/vnnTqOi1K5q7+mU1Wm+r29VdPm+UyiaXH3lVeV+JVIHy3gjyUGDWSk35PeieF45irlSUeZznbiM17vCXyWAC6zimlWtUNu1a1fhxZOOJrm8XuZVV1xanSuzuzNdtx4gJ6n169c7NdpUeIETf0grI7lMC9eq3t/Zvf/rY+eff76xQrrSKszmzKnZU2KbO5AY5dLly0xCIsc6qQ2EMS0i5Y77ww8/GA9CZ0YmpabWJgIqzxlVArjECcnFrhpaqRAcpxCJM644Pp14nD3XHNOolOlV6cuckRa3CxYsMHvYODtvf0yA1hSnRpEXmjz+6hPJ7C3PRHkSOqNc6v7l9yHXX3egQGpR1L8atJY7s6t6DRw40KxDnBl1Aini9OrtOia4EsAFbGkvpMZxJIkT0kfac1wFA/y29jennEUDQebvqkg+EJJD5fDjjGQA+fijj526jlrXa3qSPl0umhpsmvpdTWnWPX/Eb8sELY2VM9K0/eSTT9Z4RnNWxh/lmGUYkopQA7c6k7u0SM6yAgTTou3suFXPSgDXiasJOEczt4wrypykCBqLNC1oha8IDEeSKlGAk5NTVaQZQ/rQ6667rsLAse6RGvGDDz+ATLbWDsDWOX3LkUercHkBruC22qNGjTKecXKUcqSM9AyX4NBArYpczQiaXpOqSLgjLuVKFap3t59a5Vsha6Z9Gzu+05IlSzD15amOh8v/dmYu10kpCDRAqiIt6iXmOSO1jys5V9e7ah/Vz5mvjqX21PMkgmjgVmXR1nXO1iCSKMSQXRJFi0r+tOwQG1f25T63vNlGj7EKPrp0QrdRbejUD1y+y2+++aaNnVupbGfP0zGVR9HCxk6u8Fw9Wx/OLDYuNmwcMDbKq8aPePiw4TYmEiq/h8p/G2U24wNu/xz5hFPdaevdq5fTslU+OYqNi2un78sIn3LfbOt9rG+9F41RNs4clZ5LQNlooXTpL81Z0rSh/bvqt97VlQ+5nqv77qFvNvcFqvC+3PGtvC2s97P/pqHO+NJzEFS4T8/kbs2mHpz5nLaR+oVuxJXu073MeeiyfVQeZ3IbXWtt1AiV30+mVOE5ZHTGB1/959ge+pvMrVIMAEVpG036Tq+3ypDs7PICgVSBDHq4AEAua2PePRu93Wx9+/at8IJqSHr52SjG2ChXuSyzqufpHH3CbdQqmLLsO8fVb6qZbBRzjMO+Y8fJaZ6zTqX3dFWWjlNUslHtZN6f5vIqgyQcy+GC2iZQ08e5Vs9UOQy9qtBm+tsV2OyfO5yD+sILLqwQKGJ/3tVvquPMgKSto1bvKjyofuor6vBNIIWrZzgeV78yAsncS59y81wuJm30L7GRo5v6avAqCIIGPpsCZahdsjEqqPwdLUbHmdqmIJnq8OTSksmXM2FZkqNl8NFCYPmy5Zg7Zy5y83KNliKc6ptIfiQOKCWb5G3pdqsy3qjcqkgONQrHku5XPhqaxqULloOVpilNk1ofaIrTwkxyqxaWUic5kuRwvZdEoJqS5F8r+FhiloINauq4JRFDel29W22eqXdztA4rAEEOR9Vpg7RIlwgk03VtyBIda9s+clUO50ek9ZOeW5Vo4fhOlquH3D4k9ko0lSuuDFoKNJEYImXByhUr6TJcYPrbOGZRGycfdGnkhLNLLrnEqUjr+LwabUKlCshsbG2VJ3lLna5O0eJQjSyzqzq4LomjEweo8lOEtRYhknfV4dKL6rnyVREgtTD2Uv1qAQ1KBTZokFjyuGogq+Ru+puk0MdejE0yvBimbAXSk6vfa4OzGgG8fjWd9229LXCyBbys72RbeH+5YQt4Ae6Gneqt0skW8AL8ZFt4f7lhC3gB7oad6q3SyRbwAvxkW3h/uWELeAHuhp3qrdLJFvAC/GRbeH+5YQt4Ae6Gneqt0skW8AL8ZFt4f7lhC3gB7oad6q3SyRbwAvxkW3h/uWELeAHuhp3qrdLJFvAC/GRbeH+5YQt4Ae6Gneqt0skW8AL8ZFt4f7lhC3gB7oad6q3SyRbwAvxkW3h/uWEL/H+VdO96xDwclAAAAABJRU5ErkJggg==;" parent="1" vertex="1">
          <mxGeometry x="490.53" y="594.4" width="106.97" height="100" as="geometry" />
        </mxCell>
        <mxCell id="I0Hr2agrUQy3wI3fVDXH-48" value="&lt;b&gt;Registry&lt;/b&gt;" style="sketch=0;points=[[0,0,0],[0.25,0,0],[0.5,0,0],[0.75,0,0],[1,0,0],[0,1,0],[0.25,1,0],[0.5,1,0],[0.75,1,0],[1,1,0],[0,0.25,0],[0,0.5,0],[0,0.75,0],[1,0.25,0],[1,0.5,0],[1,0.75,0]];outlineConnect=0;fontColor=#232F3E;fillColor=#ED7100;strokeColor=#ffffff;dashed=0;verticalLabelPosition=bottom;verticalAlign=top;align=center;html=1;fontSize=12;fontStyle=0;aspect=fixed;shape=mxgraph.aws4.resourceIcon;resIcon=mxgraph.aws4.ecr;" parent="1" vertex="1">
          <mxGeometry x="1130" y="363" width="60" height="60" as="geometry" />
        </mxCell>
        <mxCell id="I0Hr2agrUQy3wI3fVDXH-49" value="" style="shape=image;verticalLabelPosition=bottom;labelBackgroundColor=default;verticalAlign=top;aspect=fixed;imageAspect=0;image=data:image/png,iVBORw0KGgoAAAANSUhEUgAAAsoAAAB3CAYAAAAaXWbCAAABX2lDQ1BJQ0MgUHJvZmlsZQAAKJFtkDFIAmEUx/+WJsmRDRENDQ4ZDSZyOdSoFhU4XJZQbXennYGen3cX0dZQu1BLW5xLNDbU0tDaUkHQEBGNrRG5lFzv0+q0+j4e/x9/3ns8/kCXIDNW9AIo6ZaRmU2GlldWQ/5nCPAhgD6EZdVkCUlKUwu+tfPV7+DhejvOd9lX0d7wQu14qudyrHLyEvzb3/ECubypkn5QiSozLMATI5Y2LcZ5m3jAoKOI9zlrLT7irLT4vNmzlEkR3xD3qwU5R/xEHFHafK2NS8UN9esGfr2Q17OLpINUw5jGDNL0Q8hCRJxKxBxl9P9MvDmTQhkMWzCwDg0FWDSdIIehiDzxPHSoiCJCLCLG9/Ksf2foemUbmHwDuquupxwAZ7vA0L3rjRwCwR3g9JrJhvyTrKfuNdcmxBYLScD36Divo4B/D2hUHefddpxGjfY/ABf6J0oCYx9cQO4aAAAAVmVYSWZNTQAqAAAACAABh2kABAAAAAEAAAAaAAAAAAADkoYABwAAABIAAABEoAIABAAAAAEAAALKoAMABAAAAAEAAAB3AAAAAEFTQ0lJAAAAU2NyZWVuc2hvdIAkgeUAAAHWaVRYdFhNTDpjb20uYWRvYmUueG1wAAAAAAA8eDp4bXBtZXRhIHhtbG5zOng9ImFkb2JlOm5zOm1ldGEvIiB4OnhtcHRrPSJYTVAgQ29yZSA2LjAuMCI+CiAgIDxyZGY6UkRGIHhtbG5zOnJkZj0iaHR0cDovL3d3dy53My5vcmcvMTk5OS8wMi8yMi1yZGYtc3ludGF4LW5zIyI+CiAgICAgIDxyZGY6RGVzY3JpcHRpb24gcmRmOmFib3V0PSIiCiAgICAgICAgICAgIHhtbG5zOmV4aWY9Imh0dHA6Ly9ucy5hZG9iZS5jb20vZXhpZi8xLjAvIj4KICAgICAgICAgPGV4aWY6UGl4ZWxZRGltZW5zaW9uPjExOTwvZXhpZjpQaXhlbFlEaW1lbnNpb24+CiAgICAgICAgIDxleGlmOlBpeGVsWERpbWVuc2lvbj43MTQ8L2V4aWY6UGl4ZWxYRGltZW5zaW9uPgogICAgICAgICA8ZXhpZjpVc2VyQ29tbWVudD5TY3JlZW5zaG90PC9leGlmOlVzZXJDb21tZW50PgogICAgICA8L3JkZjpEZXNjcmlwdGlvbj4KICAgPC9yZGY6UkRGPgo8L3g6eG1wbWV0YT4KfBsGJAAAN0NJREFUeAHtnQncXcP5xydvliZCRKJZCAkRtURUiFqK0EotrVarFVsppS3a2mqpP7V0odVSVbXULpba1a52GkvFFqVkQ2QjESESEbn/+c7ruc57nbuc927n3vf35PPm3nvOnJk5v2eW3zzzzEynjBcnEQJCQAgIASEgBISAEBACQqANAi1tfumHEBACQkAICAEhIASEgBAQAgEBEWUVBCEgBISAEBACQkAICAEhEIOAiHIMKLokBISAEBACQkAICAEhIARElFUGhIAQEAJCQAgIASEgBIRADAIiyjGg6JIQEAJCQAgIASEgBISAEBBRVhkQAkJACAgBISAEhIAQEAIxCIgox4CiS0JACAgBISAEhIAQEAJCQERZZUAICAEhIASEgBAQAkJACMQgIKIcA4ouCQEhIASEgBAQAkJACAgBEWWVASEgBISAEBACQkAICAEhEIOAiHIMKLokBISAEBACQkAICAEhIARElFUGhIAQEAJCQAgIASEgBIRADAIiyjGg6JIQEAJCQAgIASEgBISAEBBRVhkQAkJACAgBISAEhIAQEAIxCIgox4CiS0JACAgBISAEhIAQEAJCQERZZUAICAEhIASEgBAQAkJACMQgIKIcA4ouCQEhIASEgBAQAkJACAgBEWWVASEgBISAEBACQkAICAEhEIOAiHIMKLokBISAEBACQkAIdEwEli5d6l555RU3e/bsjgmA3roNAiLKbeDQDyHwKQJvvfWWy2Qy4cL//vc/N3369E9v5nx79tln3dy5c3OuVv7nlClT3LRp0yofcYEYn3zySffee+8VCNFxbxUrF9VGZsmSJW7+/Pl5k1mwYIF76qmn8t7XjeohQJ1ZvHhx9RLooDHvueeebrvttsv+fec733G/+MUv3H333VcxRGjLf/zjH7srr7yyYnFaRO+8846j3ZA0DgIiyo2jK+U0AQJXX311tiH9yle+4r797W+7Y489NlgJSolm1qxZbuzYse6aa64JwS+++GJ311135X30t7/9rYMsV1vIzw033FDtZLLxL1u2LOBWa3KezUA7v/z3v//N6p9OdcyYMe6AAw5wf/rTnwoSy6TJFSsXSeNLGv7Pf/6z22uvvRwWMOS1115rM6CbNGlS0F/SeOsV/te//rWjvs6cOTNxFnLfPXEEZT7w2GOPtYkBovWrX/2qzbVK/YCEv/DCCxWJjnZr4cKFFYmrlpHsvffebp999nGbbbaZe/31191vfvMbd8opp9QyC+1KC/JNvZU0DgIiyo2jK+U0IQKf//zn3S233OJuvPFG93//93+BTBxzzDElWXlWXnllt8cee7jNN988YaoKniYEzjnnHHfdddcFy9BPfvIT9+abb7p9993XYZlvBtl+++0DWejSpUt4Hcr7008/3ZCv9u6777pHHnnEDRw40N12222J36Ge747l/o9//GObPDPQ/sY3vtHmWqV+PPPMM6Fdq0R8f/nLX9zbb79diahqGgf1+Ac/+EGwJl900UVu/fXXdw8++KB76KGHapqPpIk1mtEh6fs1Y3gR5WbUqt4pINCpUye3wgoruBVXXNGNHDkyEAo6YyxPxQTi8cMf/tANGTKkWFDdTzECvXv3dn379nX9+vVzm2yyiTvjjDPcWmut5SAHzSBf/OIXw8yHvUsj+1TefffdzgaozN6YldzerdhnPd89Lm1I8pe//OVi2W7X/bj02hWRf6iScbU3D+U+t/zyy7tDDz00RMPA2ISB149+9CP39a9/3f385z93kydPDreYMcSF44knnggDnG9+85tuv/32cy+99JI9+pnPxx9/3DHY3nnnnUOcRsiZvWRWh8GLCf7NXLv99tvtUnDjw2Dz4osvuqlTp4Y4GMgjH3zwQWibvve97zlcSX73u985Bl+SdCAgopwOPSgXNUCgpaXFQYAhTsgRRxzh7rnnnmzKTN/RUNk0JA1nPusc7g80tN/61rfc73//e/fRRx9l48n9AgGAdO+4447uwAMPzPqn4f9MYzp+/PjgD8f9n/3sZ22mnSdMmBCeoaEnv4U6tRNPPNE9/PDDoZElX+SP3whTtbxb1M8aMoJvnwkNPlZ0LGG//OUv3Zw5c+xWcFmhoyEfuXnMBmqALwyecMF47rnnslZlfNFPOukk993vfjfoA+sULidIIUzjXhddEz84oWvrTP/1r3+FjjFK/vBVZPoYK7cJlj10EHU9OPvss4NOLQw+yZQbwtIR41KEMPXMe11//fXusMMOa+OzSfqWL8Lh25w2wYpMHdh2223dokWLXNSVoVj5zffuuOBQbnfZZZeA9WWXXZYl4LgugB11mTIPoWIQTRjqD+5aUdJFXIcffnjQLXXJ2g7IFgOw999/P+BudYp24fLLL8/CnK9sEODaa691uPGce+652bSpj3GC+xWzZLhMoOfzzjsvBCtUjllnsP/++7vdd989kL3nn38+tCXMsEHSIGbEVYoRIS5Pabj2hS98wS233HLZNRzoBdcX2n3qGWXq6KOPDu9LPYQsc5/P0aNHh3pIff/4448/8zr0A7SJtJ+UT9rhk08+2T366KNuiy22CPWVGQ2TO++8M7SfuIWY0PYMGjQotC3kEwv44MGDw+3jjjvO3XHHHW7VVVd1Q4cOdffee29om22NjMWhz/ogIKJcH9yVag0QoGGESNAB0wkxeqdjxGqFQFSii21oPCEfRpL4Hkco7r//fnfJJZcE8gspwaeStOLkww8/DCTzhBNOcDfddJNbd911A7EmLI0ghIj8QdTwXaMxtY6PxpgGFKsUHSkdMHnOJ1jLL7zwQod1hHzRmeM7zcIUGn/eJ9oJkGeLD0vKVVddFTCiI4ZkY403oaMgL5CIaB7tfiN9Dhs2LHSeWJfQOZ0nbjroFJL88ssvZ/3AC2Ga+86QYnR31FFHhechW6eddloYbKFDOuQHHngg+xh6x9JN52hC2ezVq1fogLlG+WM6+d///ncgYlyDQGJBI2xUh1i7+vTp4772ta+FTt3chihnDALPOuus4BsJaYpauoiz3gLpmzFjRiDKkAiIC/iYFCu/ce9O/TnyyCNDnBBLBngs+DLyyuCWhY4MntH9l770pVAWqBMQZIgz+rTBJWEhXDfffHMgnZBj6hZWfQZGPXr0CLhTnhAsgjboLlQ2CEs48gjZo64fcsghoS7HuQiRFmnSlkDeIPmFyjH38N3lfYj7+OOPD2WHsnfQQQeRfPgkrmhZDDca7D/KP8SfgdUVV1zhunfvHizGYMR7o1vqkgmzTH/4wx/CAIjBFPqMW2tii/ouuOCCUL/pTxCuQ3aHDx8eDB6kS1lF39Q/M8pYevitf+5zn3P9+/cP5ZFZB9Jj0IYb1Zlnnhn6B66/+uqrDiu2pP4IiCjXXwfKQZUQoMGik8Nixx+kGP8wOo5yhJH/xhtvHBaL0cnyHXITJzSKP/3pT0NjSqONxYw8RC3QNOIDBgwIjSqkmwVYCFYFSMP3v/9917Nnz+C7uc4668Qlk73GorX11lsvdP4QZp7/z3/+k72f7wvkF1KPBRtyRsNPx2+ClTMuj3a/kT7RWefOnUN5wAJL2cDy88Ybb4Qp0Y022qiNNbNUTLEoMS0LgUHvfB8xYkTwk0f3dMQMYBDK4K233hqs2LnYQRLNmgqpJT7isQ4eKxZhcgWSwLsxwIEEoXsE3WJN5DrWKsornXCaBFIMUTViAXaURchzKRL37lhwed8ddtgh4LLpppuG+he1/BE39YSyTjissqTdtWvXsAAUDG26Hp9YsANjygSf1GV0Tf2nTIE7g65cKVQ2LCwkmfpPfHyutNJK2bbAwvDJIIn8Eo70cC8qVI7RP4JrAAM/rJqrrLJKKBdmNDD3JN6pkWXevHkBGzBCb1iTGbjgloGFH4mWqaiu1l577XCfAW2uEBdh8Z9HKG/giAsFA1HKDG06g1rKLbM+DGhKEStfG264YTY49R2xe9kb+lIXBBq7VtQFMiXaKAjQWGJFMaHxgvCtueaasUTDwhX7pCHFWliqQEpwc2Bak+lZGlaIEh1rrtAxmxWbdJies44uN2yx3zxHB15o+zCLAwLOtDJWZSyPEAGsdHEdZzSP9nwjfTJ4olODRGFphXTQuUUljohyvxCm6GubbbaJRhNIrhFcygwWPaa9se6TbnRq1h7ceuutg2UbiyQWaKZ6KTN0wlimySuDr/YKg67oTEp746nUc5A3XISol8yAmIA1lm9cWNoj6CNKhIiDQQdWP7P0RuNFH0i3bt3CJ+kzwLGBNdZGBskTJ04Mg0rKkNXV8ECB/4qVjbhHqWfRAXVcGLsGwc9XjmlnmNnACop7EVZUrOsMfJtJ2HINazI6NmEggHHCZKeddgqDTvsd/YRUIzajaPeoe+jZBhV2nXpE2cAgQ3vBjCUuTljlGcCMGjXKghb8xECBEJ8JfRdSavmy5/RZHQRElKuDq2JNIQJYXlZbbbVgpaFhgwS2hzAQT1xHG/fKTKvhP4nLx8EHHxysllj3ShEWIdq0bynhc8NAQLCS0mgb4S30vnQo/GHFYJqSKUWsoM0muI+sscYaDgsSnRydEdZCI0iF3jeKaW44cMaPFQulCYMkriNY7b761a8GtwwsX/jAQsZyxfwUmb6FFOM+gLClFMR5iF9gikWwWQTLL3UKHUSF8s8Ak50NSim/0Wf5Du48HxUWWUFAo6Qkej/fd/TOoJs84tdKHLvuumu+4J+5XqxsfOaBhBcoM4XKMTNEbI1IuTv99NODS8lJ3t2rWQQDhC2Mw+WMekVbz4CUQT8zBFGJa1exDiO5dYu4zHoMEbcBDO0kgw3KJn+4TjBzgLsMA5K4uh3Ng30nnwjubzbQtkWFpCupPwKtQ6j650M5EAIVRwDLAFY5/phuGzduXJgqs5XokCVWRWNhogHEh7gUYQqXzp1GGIsPz5mvb+7zWJ/oxJiyxbLDwr1Shalonsd/DasGpKnY4RFMwUKGeScIIWQDqyUWCiwiuHNgBcHChfXDhA7UGmeIGMSFDqHRBWs6lkAWJuKCwgAADFnEROeGmwr6+dvf/pa1HObinA/TXGywVrGACB2DMUSX6W6um9CBch9LNlP9+YQOk/LKFCx64A+/VHTKIC+foDd8c7FSUabTLpRr3C7AAp/O6B8uRxCgqE92vvLLe+a+O4MSyjXuLtQJBjEQ56g+SsWHASeDY0gXuqBMRAfLpM1v8kuauVJK2ch9ptBv6jVWZNo42p5C5ZgwlEuwxmUAYmZ1Gys0LhyUGeoKYRpFqAv4luNjzEJVdpOg3hjZZCDKO7FQkbr/z3/+MyyanubdZUyY7aEPoC3EFQrXCupZrjD4BRvWmrBGhU/qeHRQjPsFYVg3UKiM0d5A1EmTNpd2HsLNbAU+z//4xz+CHzwD66222io3K/pdBwRkUa4D6EqyNghAZM1FAgsSxJipXfPzxTrEApbddtstTNGyM0WUPObLJWQHSyFuHDRm/IYIxwmdNQ0gVjGmcVmkUao1C5LE7gYs4uPZLbfcMrwP75VPIOO8B+SQxpf3tSllXCvoNFiRDRaQEzoHhPDsA0vjD6mgs8BPstHFtoyCFEMQcGW59NJLg/8n7wZep556ati1gE6P6VcsSvachcmHaRQfLEp0zPhCgiFkhMU7rIo3AXdcPsAXneYTOvu///3vbVwsKEt07EYE4p5lBoAFQZAC9A2BS7NAOBnEQDJyBZ9qyiDvwjsXKr88m/vuHDTDbA5bAbJIE92y0BFSlVRoM7DKQt4hm/iTRgnVBhtsENoV2hIGmn/961/bJFFK2WjzQJEfvBu7boAbs0C4UuQrx5B3FiDiUsWsCe5Y7O6A8Jtyj5WcwTRWZ7NwFslC3W/bAjt8uXHbwUWHOmKCrpkJYPeQB73bEu9KOcIdxwwbDDioL9Rb4qA/oE3IFfyNwRESy6E4lE3KAlu5mVCvyQtlJddNw8LwicUb6zdtMWQeVxG+kw/IP2TbXOGs7Y4+r++1R6CTV0rjDCFrj49S7AAIYAkqlbxG4cBqR+NbbIqNKoZVmw6qWNho/PYd9wDigOwVErbBwv+Q06oganFEjHiweJhFKTc+rJC8U7G0cp9rht/MDjBQiHZOpWAa9+42RZt7D1LIAI0O0VwycsOU+5t3QJpRh8XKb753pz5gOW1P/Yvqg5ka6lXuVL6Fyad3u89nKWGi4Qt9py5Hyyth48ox18GGe7nhuVcpfIgrjYLeeG+rE1h0IboMEqjjSXSSr79g4S0udgzObMeZfFjQpqMPymRU0A9lnDZYkh4ECve86cmnciIEqoZAe0gymclt5PJlkM4Zy0V7Jc7CUSyuOJLMM+QlH0nmfqF73G9mgfzkI0C8dz5M4zDJhyNuAHSi1SLJ5MXIQFy+Gv1asfKb792T6K4QRlgSC0k+vUefKSVMNHyh73GkN185Bptq41Mor/W8Vwm9Wf7z9RdYrrFW40pRTGjT49r1Qu1PsTh1v3oIiChXD1vFLARqigCHCeSu8q9pBpowsUpjyhZgTM9LhIAQqB8CuMxxSl6lFsthHcatDrcb2z2jfm+nlCuNgFwvKo2o4hMCQkAICAEhIASEgBBoCgS060VTqFEvIQSEgBAQAkJACAgBIVBpBESUK42o4hMCQkAICAEhIAQaBgF2x2CPbRb9VUNYzM3OGpLGRCARUWa1Z+6pNY352sp1R0OABpCV3ZJWBPCpsxOhhIkQSCsC7BXMLgD5hN0LOJEtqVD+6c/ySaH6Qb0plKd8cVbqejFMLJ32YmPPd6RP9upmK0f2Wy5XOPiFg6asjFCW9t57b7fnnns2xN7m5b5/JZ8HR7YurbeUtJjv6aefDqdCUfHYtoQDFzhClYVDEBA28GYfyXKEgso+sY0u7N3IFi8IK23Zk5L9dpvh3RpZNzSCLNzgVKq0Srl1IFr2ou947rnnZveOZrN8VmdznDZbFLH5PXt5sk0SOwpwEIcdasJOAWzAzz6t7BfKfYkQqBUCHIrDPuLsYU0bitBxDhs2LLudI3sJc9AEe4CXIpBj9grmyGyMPiy+Ovroox2LLBG2CTvjjDPCftUQHfZKZssv9sdFOB2R9CDLtCnRbcCIl10oOPq9WhKHSb60kmKTLx5dT4YAh7uwLzX71bMzErtbsH86BLrZt30rpQ9KgibnAHAiZr339C9KlJkuQOmMhtjQnd/XXHNN+IQoc/IUx6qWQ5SZlqChaxYyyebvKJbTtzhJis3deb/oBvVJCovClo/A2LFjs51d+bFVPoZK1QE6bw4jiIodOnHhhReGDfPZx5fTCdmm6vnnnw97+m600UbhyGqe23bbbd1hhx0WTh6ENHNqHdtK2eEt0bj1XQhUCwEObYAgR8koh4fQnubboqtYXiC6HDbBwRHEwcEPp5xySjgFkWdPO+20cEgFfRxbdTGw5hAK6gCWa/4uuOCCcEgK++9a3mjnOdKY+KspcZhUMz3FnRwBDIdRwcBQ7XIRTa/e3wv1QfXOW3vTL0qUOWIRyxNEGeH0nqOOOiqbHkdfliuViKPcPFTyeSxxWJM5BYyjRTlN67777hNRriTICeNi6540S6XqgB1VnfuuHMELOTjiiCOChdjuc5JV9DQrrkMQKL/8YQl5/PHHw5+IsqGmz1ogwOAMa3JUyqknWJCZWof8moWYmRKO0GZm1I7Lhgjb4JLTADlJjWPkcXnAAo2wDzbWafrGN998M5z8BxnKt09xeKgC/8VhUoFoUx3FIYccEoxoWGfZhxzLLCedcloewn1muel3r7rqqtDGbb311sGgx5HlHCnOjMHBBx8cTt/jGdwhGHRh5GPAZDMK3EMwJnBSH0ZChHguv/zyMPuAwYvZBn7Tr+PfjKEQA9ntt98eyhPPMOtOns4+++zAmTgcxk5spD3mO8eqs8c+bTAHRbG1HLN+nDoI4bz44ouDwY2TX5nto31Pu+Trg9Ke70L5K0qUOU2MaSZOnaEwRoVR9y233BJ8P7FAcewiyr377rvdddddFxoQprsh1hREChcWAgofhZRGj2kvCgONFHHQSXN2e7MIo0lw4f3i3v+GG25wEydODFaKGTNmBHJChTGrINYTKhHT8kzpYAUEYxoCJAnWxdJqFszj3oNjhTnSmdOYrr322qAPZkfAFf1QDmnQIIVYbSiLI0eODFHlw5ibjz76aDhqGIswR9uuvfbaYXqN52nQKdsPPfRQ0D0DJxpP64Qtn+g1rg7wPCe4PeiPX6X8rLXWWqGx56jUpEIDjhsFx1YnFUgB6Xc0ieqPNpBygv7QM50kesE6yXHGdGLoFUI1bty4UD/5pBPF6sgx5Ey7cvz4eeedF1wIiH/MmDGho6edoFyaH/2NN97o9ttvv3BMMW4xUb1d6o/gpuxSxhpNsMxCWCE3CG0eZJRjgXGpQKgLYEM7BwZgTj+CawOuERz3CwHhOQTSw3HfHD/Pcxwpb64aIcAn/0FCwDUqM2fODHqjc6ctYJY0Wr/sSGJmTjlIgn6Ndpy+C32TNhZpSFL//v2jUbf5zpHokHJmaxAI1hVXXBHybeSafpJZW9p26iukkHpnR6obPoYJ5AnrJUcf4xZJPJA4pvohekip2ITAKf2P0yypb7RfzDpDbikLHCnOwIX7DHaoa9RN3F8uueSSQDbBjiPkeQYdEA/tO3WQo9HRKe3qrbfe2ubtTb92kUERbi+0Awizc/Af8OZYbNoC3HkoP5RNhKOp7UAY6r35xJNPyj9lefTo0W7SpEmhnUfXXIdQo1f6fngAnIiyaeQ5RN6A/9G+gQFtHG5B1MfcugpH4Q9s0Ju5sdb9dX2lLyi+Ucv4IxkzvoJnvBIzvqHJeIWGZ/woPOOnqjLHHXdcxhesjO80Mh6EjCccGa/ojFd4xrscZPbff/8Q3o++s/H4Kd2Mn6oK4X0hzfgGIsThC33B/KT9pu/4Mt43KZvNqVOnZnbeeefMTTfdlIl7f2+NyHi/noyfusv4QpHxlTHjDznIvPzyyyEO3wBn/EKAjPeLC/eJh/C+4iXGulha2Uw34Zfjjz8+4311w5tddNFFobz5zi/jCW7Gk+SMtxplfEcbyqzveDK+AoewhcqzJyuZ7bffPuOtVCEsOkQ31AXE+zpmPJnJ+M44Qz0iXT+NG+5F/yONuDrgLVQZbwXJUCe8VSTjSUbIN/UsTih7J598csZbjrN/noiEoJ6oZU499dS4x9pcAwtPWkLZooz5DijjSVpmwoQJbcJ1hB+UA0/Wgj7Rnx/QZLxVMbRb6BI9gBFh0BXi13NkfOcWdE3Z8p1g0BntJuIJUsZ30Bnf4YZ73v874wdS4R5xejIV9Oyn+DOUL0+2M37gHMoPgXwHEtqT5557LjzTaP/5Dj/g4QlcyLoni+H3+eefH36DM3XPz8KF37SdfOc6WNIPgTF1jPYSzHbaaadQd6lH1GHC0LcUEm+cyHiyFXTnBzchqB+AZDyZ+sxjnghnvBU6XCc9b+XOeL/JDDqgjnvL4Geeyb1AmGjd96Q4vDdlCvEWxtCWUGZoR3bdddeMn80N97yRKrRP6B4xTPh+0EEHZfzAIvQtnixnaAM8aeNWu7EJD6foP39AT4Y/e39PSIOO/eAo5JJ71DnvRhZ+Uw5os/wseMbKmbfShmdoQ+3+AQcckK1XtL+UG8IhtOP0vSZ+0BLue0NKyAfxR5+nfJr4g0xCWNIx8QOX8A78ppyR1h133BFu86y3kGf1T5vLffKEEA/9DO1M2qVQH0TdoexSR3mn3LpK28h9Pqnb9KvogXD1lqK7XmDpwEcLXy5GSIxqsHiyGIhROCMmpkSwOjHC5jsWgMGDB4eRFQuBPGluMzJgFLHJJpuEqQ3CY7VmFEwcjMgaXbAE+MFDGB1iFcFfGauQSfT9mdJhpMyiqldffTVME4Hz+PHjLXiwOuHCgcWAeLAqM4WYFOtS0som2uRfsCJgDcC9AIsAI130hDXAd7zB8sfIvxDGPMOomHgQZlwYAVOe+WQxBxYQrI5+4BOm55iZwcoTlbg6wJQuVhKmGKkTWLaYhuY6U3P5BEsjVjL7MwuIb5hKXkjyyCOPOHy6KaeM/JlSxoe5Iwk68h2Z84P80C7RDqJfrFFMyXKd9o4TvrAAUnejwn3KFtZJLH92HwsRU8ZYl7k3YsSI7D2ep+zQZjAzwZQsLkNYo5jpQJjdoK3guUaUUaNGhTKM5R3BEufJXph14TdbdGFRo3+ICviDPQLm9BVmicXST92lHvFJXcFKV0iot/Rf1A/LC9ZorHe5QjrcQ9Ar1kQsklgy8UumP+Q3swq5FmuLC8uhH2yG9KijPEcd4/0RLIbUMcqMJ0gOnDw5cLg+kk/yELe7B3GBFe9DucDyblZM4m0PNjyXNjGuQb6oGwgWXhMWzds6Kazr6BWLsx0TbfUF3HGV4T7hKVeIhbP4Cn1a/NRre94+Cz1n98gDwkwUwrPMNtLmwKtMaAsQyjV9AO5BjSD5+iDyjmdBvrpKewumtJGUd74bBvV+76KuF5ZBiBp/fhQViDBTUFFfZQvHJ50CpAylM51AhacQWGFkeqSZhQoIeULJDBjsfcEBsd98x++NQsEUvgnTRZDlOKFSES+FEUmCddK04tJvxmt0LNHVyAxEECO0+TBGT0yrM0VGpUaHDGQg2zTi3lIQppYhyiYcicz1YgI5Iv3owJFyAsGHBOcT3HQg+rkyxE9RQkJKETp1Vvrj04z7QFoaq1LyXqkwbEkE/ug4Tlh3AMlBTxAmOvJ8gg8kAxWEDprBBwMm2sZp3oiAbkzMd9Z+Q5wwNtDebrbZZu7mm28OO0HY/Ub7hIgyeIQY0g6Ch7cihZ1YqGcM0phyjSOspb4r9ZeBaiGhfeWP48TxQabzxjWL9HMFHdP3RQUfU9w9zjrrrOBCQZ33s1aOVfrU2a222ioaPKTFwIfFsbQHYECaDBIoZ6QLDgjtNHqP9gnUyWi/YZHjYkIeqPOUJdoxG7hbmOhnKdhEw6fxu5HSaDtq18gvZQqJLvjkvQnDPQZiCAS0PWJli/a4PWJtQTR/1n5Y3tsTb1qeydcHxeUvWh7pM9O6DiaxpmkQ6KyjhTQKANv3eFeN0NHiPE+Dwii8IwmjJqyUpQgdMf5QBx54YCnBgx8WmGJRSYp10rRKylCTByqGMY0lHS4NHdvY2KIQOkvu0cGZNSMJVFjNGFiy2IPBFkKdwxrBjhVJhVE6FmoskxCuqDCAi3Y0dg8C4aeXnXfnCGsK2tsxWHyN9Gn403hjqYsKs2rgeOSRR4bFjpBXDAOlCGSKeoh/MWmAbTGBzGG1ZKaKWQw/LVvskVTfp21kIRNk0N6FesLAgwEI5LEaApFk8Ie/uJV3BoHUM3ylqcdYGxmIMsuHgDdWXXRggnUZveHzCrlmjQlxEhcEGQt1LlEmPWYeeD/KFNve0YZjAcZfmUEsvtcI5YN2hPUUxYS8Q+JJm/jx28a63MyCHpHcehku+v/AFKHtNMEaTzvHPTM+oHMTM4rYb0g0M4pxYumaZTguTKFrWL+ZESZ/tmsKZQzhHuWjIwozdNS3NErRGsWU0kknneQonDhYmyWFhg1hlMwImE6ckTKNBgUJCxuVOOpCEB6I+c8AwsLCCtWOJN73KDTE3g8nvDYVlk6X6R0TyAqjUKZeWNwF5pCdpFiXkpalqc9WBIphzHQqf+iLDhJLIe4RlH2sPKygN+s/YVikEye5dQBSir6YhsXSRt2DoFHPrO7FxUMdwgIW/aNMYWViyp8OnkUVbF1IfaU+M5C1vZNz48SyTDjagY4k4A+JY/GPNd7oFl1QH5nuZkcQLEDovxSho2Y7PgYtkGSbui/2LKQN4sWUPzMWjT5gwa0AEsJUq5VlyDNbrFFuc90uDB9z88OwQJ2yGTq7X+wTUks5Z19xrIrUKVwKIZm4KGAAol1lK0/iR+8slINcRQeXLETHTcIGrBBeCDZCHc+3qI93JX0MHebKxDXvu5l1uyAO3G38WpSs+wjtPguc4qyNDOQhWfTPuJsw2LDySlyFhL6ZNgUBS9oqc0OZMmVKwCYuzUJxVuse+IIJ+Hl/9jAY8P6wscmhT+oYdRVd4q6E+xiDFeoP+sJ9isEumxGwqI/Ff1HBLYo2kpkcnmfhngn9L7onL+xJz0JPFqMyYEaMSBNvdFbAnke/DGZY2Ip7HovI2Zsb0kzeGl3y9UHF3gvXNrCmDcBqj77pe9IgRS3KTBXTmOB3TAVk+oeRtO2AQYFkKpFpI6YIsULRAOJbifWZQhGdYoh7aVwVaKgYtQ/x05BYGyAaHUFovLHAU5H5o8HCdynaWYAF/qlMBxOe6T06DaY4kmBdSlodAfMk71gIY3a6oNzyB4Glk8Tqh+5wS8LXlLLMqUyQG+oD3+Mkrg5Qz6h77NdKuYAwYXUyX824eCC0uaSWPGAtY2s4Vs7jRwnporFeffXVQ52FvMQJVr8TTjgh+NxTLnMtZXHPNMs12jw6Wtol6hsdIHrlgBb0wG4lWJ4gOzTwxYSOmqlyXHWIC0KFm0Ep4he1hI6dXREaXcz9YurUqYGw8D52iAgEMp/bBW4FEB12TWIGh50Pkgj1j7YWnTJoRB/UC/ZO5h6CxZ940RN1jgEmO+YQFsH6S75xdzDZz+/Mwc4XkCrqOb/jhLRoy6lDZvVlgABBjc5AUp5o69mJh3aFfEAKc/tEruOqA3GjfEIq2GEH0scAr5jg/gJZxLrNwAGiB8a0RRA3Buns1GHW9WLxVfM+7RB9HVZc3hk9meU4Ll1mbChHGKBsxx/qnc34gS1GA/pcSDNtLXo24dAY2j3ILHUVXkObaUJbim7YoQXDCOXXZh2oq7QNdtCTWY3tWTiOX1gd4maHL9oQZgPYOaUZJF8fVOzdWBPD4Ia6hyGB3xhc0yCdfGVrdZwtkhuCQZTNlyY3OBWNyooQFhLByM4amNzwcb8Z4eOz0lEFDGloox0FJAnixdQrVmVr0A2j9mIdl5bFqc+2COTDGGsClo6orz6zAVgJaIBNeJ5RNo19MYmrAzyPZSdX98XiKnSf+Oh4G906WegdK3UP6wZWeWvfiJff6Io2LqlQ99BpkrYOyybP0EF3dKEdhFwk6VtyMTNLKfHECfoF72hbHBfOrhG21Dpuz5TySZyUEyPW0WewJEP8zSrMPdxG2BoOa2a+d7M4IHqUbQuXi2u0T7dn6vEJYYJ3MACIax8L5Qm98B756lqxd4TzFDL04YZDWYmLv5S8kj74x+m30Hs18z3qJgO2cup3pfEpalG2BMl0PpJMmGgnQlhGuUklrrAljaORw0cxjHuPOKLUXqyLpRWXfke9lg9jVlUzJccsC36FuCBBkvFdjQrPl0KSeSauDvB8nO6jaST9bp1j0uc6YnjIUi5hYoDRHpIMfknrHm4AzNrlzhR0RF3wzpWoC8XKf9IBZJI6nkRvhfpcLJ2QNCyhtEWQLsoJvs3F3o88QM6i4XJxTVpOk7xXe8PGtY+F4kIvhZ4p9o6FSDLpQuj4i5NC6Vr4YulbuI70GS2TaXnvki3KaclwR8sHPqQsPrDN5jva+6f9fVl4gY6Y9sQlAt81po0kQqBSCODSM837oJpPbKXiVTyNjwBWSw66YGEapJpDkvC1bibBRYSBqrl7NtO76V0aAwER5cbQk3IpBISAEBACQkAI1ACB6fM+ci+8sdhNmbPEzV6w1C1c3LqlZ8/uLa5/ry5uzX7el3u17m5Qn8/uu12D7CmJGiNQsutFjfOl5ISAEBACQkAICAEhUBMElizNuFsnLHD3TnzfvTqr9YCZYgkPG9DNbT98ebfLyF6uW5fWBZ/FntH9xkNAFuXG05lyLASEgBAQAkJACFQIgeuffNdd+dh8t2BR8cOg4pLs1aPF7b1lb7fbpsnXZsXFp2vpQkBEOV36UG6EgBAQAkJACAiBGiCAi8WZd851z7zWelqfJdmlpZMbNbSHGz7IH7DWv5vrvVzrdrXzP/jYTZq9xE2cvtg9NXmRW7qs7aZhGw3u4Q7fsa9cMgzIJvkUUW4SReo1hIAQEAJCQAgIgdIQmDBtkTvlpjltrMiDV+7q9ti8t9tu/Z4OslxIIMn3v7jQXT1+vnvt7U+PTMe6fOKu/dzIIa3b5RaKQ/caAwER5ZTqae7C6e6l2Y+4afOed3Pen+YWLpkfctqzW2/Xb/khbkifEW7d/lu5vj1bj+tM6WsoW3kQkH7zANMkl6XfJlFknteQfvMA0yCXIcnHXDPLfRzxtDhw2z6eJLe6TiTV79Xj33UXPjAv+/adW5w7fewAkeUsIo39RUQ5Zfqjgj48eZx7Yeb9JeVsg4Hbua2H7iXCXBJa9Q8k/dZfB9XMgfRbTXTrH7f0W38dlJsD3C0OvWxG1pK8Us/O7rTdBzgW5pWjXxYAHnvtLPfOwo9DFrEsn7PvKnLDKFdhKXheRDkFSrAsTJh+p7vjv2e7ZZnIMNduFvhs6dTidlrvZ27koB0LhNKteiMg/dZbA9VNX/qtLr71jl36rbcGKpP+keNmZX2SIcl/3W8VN2DFLq4S+p317lJ3yKUzsmQZn+U/7jWgMhlXLHVDoPNJXuqWuhLOIvDolGvc3S+f5zL+X1LhmVfeetx1bunqVl9peNLHFb4GCEi/NQC5jklIv3UEvwZJS781ALkGSbC7xT+feS+b0p/3WcXhl1wp/a43cERwt7jtkzQgzj0/1+LWW7V7Nk19aTwERJRToDNGspDkcmXqvGfdCt1XdgN7DSs3Kj1fQQSk3wqCmcKopN8UKqWCWZJ+KwhmHaNin+QTrp/tPvSfCD7J26zbM1iSK9n/Dl9lHb+ncovDDxr538wP3bdHregNWYUXB4bA+i+VCFT0wJEFCxa4ZyZMcJMnT3bz5rU6tvfp08cNHTrUbeSP1uzVq1cqQahnpvCJwt2iUkJcg1faQD7LlQK0zHik3zIBTPnj0m/KFVRm9qTfMgFM0eMcJmL7JLfubrFi8EmuRv+7x+aD3D0vvBd2wyBN0u7oeyzDDyd4fjh1yhQ3d+7cUDL69u3r1lhzzXD0epr5oV+bWRl5/rnn3AXnn++eeOIJ9/bbb7tly5aFP75zjXuEkbRFgIV7SX2S28bQ9hdxEackHQhIv+nQQ7VyIf1WC9l0xCv9pkMPlcgFJ+6ZsAUcUk39WhqkE02b3x1NjB8+6bngW2+9leWHfOda2vlhRYgyINx1113h5fMVAIgzYUSWP0UIa0Wpu1t8+lTxb8RJ3JL6IiD91hf/aqcu/VYb4frGL/3WF/9Kps5OF3YsNfsjs09ytfUb3YuZtMlDR5Rm4IdlE2XM6ffcc0/J+icsz0hc2Ce5HBy2WWsf9/1Rf4iNgj2YJfVFoFwdSL/11V+x1KXfYgg19n3pt7H1F839C28szv7kxD3IcrX1a6f7WcLRPNi1Zv9sFn5YNlHGJxlrcalCWJ6RuHCYSHtxgERtM3RvP3V0RWwUHFQiqS8C5ehA+q2v7kpJXfotBaXGDSP9Nq7ucnM+Zc6S7CWOpUZqoV9Li/SieeB3RxB8kpPyQ55Jm5S9mI+Fe0kFIGbMnJn0saYJv+WWW7rVV189nLjXnpcyEnX5U7/IW9k5zQ95/fXX3WOPPRa+67/aICD91gbneqUi/dYL+dqkK/3WBudapvL07LV9cn1CkoP7tO4+YX1k0nwk6X8tLdJ4+sVp7uq3S599T5qvNIafPWtW4myx2G/06NGJn6vmA2UTZdvdIkkmP/roI/eGJ3AdVTJbbBFe3Y6lToJDKZWU+CzuTCbTobFOgm2lwkq/lUIynfFIv+nUS6VyJf1WCsn0xPPesjWzmVnhky2NrY/M3ijhS9L+19Ii6vcWLVVfXALGtiNGCUFrFqRs14ua5bQDJRQqo3etyJVSK2nuc/qdLgSk33Tpo9K5kX4rjWi64pN+06WPSudG+q00oo0fX9kWZfZJZgu4JNK1a1c3cODAJI80VdiWTq1TPz279Xbvf9i633T0BV+b91x2kd5Dk1p9kEPl9T7JhdwtonEQN0JauHlIaoeA9Fs7rOuRkvRbD9Rrl6b0Wzusa5XSy7O7uLkftKb23ifr+mrR/1papLxCjy5u9f4dqy+e5V0vliz51D+8FH2zt3LapGyizGEiSYnySH/4yDYp80Gph2L6LT8kliizyABCHN3RgoV7pZJk3oW4kdU8SR4rohywqPV/0m+tEa9tetJvbfGudWrSb60Rr156c++d66Y91brb1mvzMg7nx1rol7RMNl5/iBu7/cb2s0N8Pvjgg2Gf5CQvywEkaZOyXS84ca+lpfRoCMszEueG9BmRFwYjyxDkpCSZSAvFnTdR3agoAoV0IP1WFOq6RCb91gX2miUq/dYM6qontGa/btk0Jk5vNSnXQr+WFolH85DNTJN/wSialB/yTNqkdIabJ+ccOzhmzJg8dz97mbBpPqrwszmu3pV1+29VMHIjU0ksyRZhsbgtnD6rh0AxHUi/1cO+FjFLv7VAuX5pSL/1w77SKW+w2icr+HzET01e5JYuy7hq65c0SMskmge71uyfzcIPyybKKHrEhhu6HXbYoeDIgVEFYQgraUWgb89BboOB2xWEAzLFXxIhTuKW1BcB6be++Fc7dem32gjXN37pt774VzL1QX26umEDWq3KENj7X1wY+shq9r+kQVoIaZOHjijNwA/L9lE2xQPGkDXWCIeJsLeybRvHYj/8mHG3kCXZ0Pr0c+uhe7kXZz3olmVKP7Tl06c/+62lU4sjTkk6EJB+06GHauVC+q0WsumIV/pNhx4qkYvthy/vj7FuXTx/9fj5bswGy4e+slr9L2mYkHZHFuOHnKHBPsm2BRwL9/BJxt0izfywk99n91Nv846syTq++4Tpd7rbXjyrIjn4+vqHuZGDdqxIXIqkMghIv5XBMa2xSL9p1Uxl8iX9VgbHeseyZGnGfe8vr7sFi1qNUgdu28ftsfmKrhr6vXr8u+7CB1pJea8eLe4fP13ddevSuttVvXFQ+skR6HySl+SP6YlKIjCw1zDXuaWrmzrv2bKi3W7YD9yXBu9aVhx6uPIISL+VxzRNMUq/adJG5fMi/VYe03rE2Lmlk+vSuZN7akqr3/CEaYvcFsN6uuGrrFPR/vfVWUvcyTfNyb7iAaNXch3RPzkLQBN8EVFOiRJXX2m4W6H7ym7S20+6jP+XRHC32Hn9n4skJwGtxmGl3xoDXuPkpN8aA17j5KTfGgNepeTWW7W7e/71D92sd5eGFB575QO3zbo93XoDR1Sk/yXeI8bNdIs/au3DNxrcwx2+48pVehtFWysE5HpRK6RLTGfuwunu4cnj3Asz7y/pCRYj4EenxXslwVX3QNJv3VVQ1QxIv1WFt+6RS791V0HZGZg+7yN36GUzsi4YK/Xs7E7bfUBYcFeOfrEkH3vtLPfOwo9DHnG5OGffVTrsIr6yFZWiCESUU6SMaFaosC/NfiTseDHn/WnOzqXnNCE2SmcPSLa3EUGOotY436XfxtFVe3Iq/bYHtcZ5RvptHF3F5RS3i2OumeU+jqyhN59lwifVb9Qnmec7+/3ETh87wI0c0oOfkgZHQES5wRWo7AsBISAEhIAQEALJEIAsn+J9iW1xH08PXrmrX+DX2223fk/Xxfs0FxLbZo7dLV57+6NsUCzJJ+7aTyQ5i0jjfxFRbnwd6g2EgBAQAkJACAiBhAjghnHmnXPdM699ejAIUUCSRw3t4YYP6u7W6t/N9V6uc4h5/gcfu0mzlzhO3LODS6JJtvok95W7RRSUJvguotwEStQrCAEhIASEgBAQAu1D4Pon33VXPja/jXU5SUxYkffesrfbbdMVkzymsA2CgIhygyhK2RQCQkAICAEhIASqgwD7LN86YYG7d+L7/mCSJSUlwol7HCayy8he2ie5JMQaM5CIcmPqTbkWAkJACAgBISAEqoAALhkvvLHYTZmzxM1esNQtXNy66q9n9xbXv1cXt2a/bmFv5I56LHUVIE91lCLKqVaPMicEhIAQEAJCQAgIASFQLwT8JiYSISAEhIAQEAJCQAgIASEgBHIREFHORUS/hYAQEAJCQAgIASEgBISAR0BEWcVACAgBISAEhIAQEAJCQAjEICCiHAOKLgkBISAEhIAQEAJCQAgIARFllQEhIASEgBAQAkJACAgBIRCDgIhyDCi6JASEgBAQAkJACAgBISAERJRVBoSAEBACQkAICAEhIASEQAwCIsoxoOiSEBACQkAICAEhIASEgBAQUVYZEAJCQAgIASEgBISAEBACMQiIKMeAoktCQAgIASEgBISAEBACQkBEWWVACAgBISAEhIAQEAJCQAjEICCiHAOKLgkBISAEhIAQEAJCQAgIARFllQEhIASEgBAQAkJACAgBIRCDgIhyDCi6JASEgBAQAkJACAgBISAERJRVBoSAEBACQkAICAEhIASEQAwCIsoxoOiSEBACQkAICAEhIASEgBAQUVYZEAJCQAgIASEgBISAEBACMQiIKMeAoktCQAgIASEgBISAEBACQkBEWWVACAgBISAEhIAQEAJCQAjEICCiHAOKLgkBISAEhIAQEAJCQAgIARFllQEhIASEgBAQAkJACAgBIRCDgIhyDCi6JASEgBAQAkJACAgBISAERJRVBoSAEBACQkAICAEhIASEQAwCIsoxoOiSEBACQkAICAEhIASEgBAQUVYZEAJCQAgIASEgBISAEBACMQiIKMeAoktCQAgIASEgBISAEBACQkBEWWVACAgBISAEhIAQEAJCQAjEICCiHAOKLgkBISAEhIAQEAJCQAgIARFllQEhIASEgBAQAkJACAgBIRCDgIhyDCi6JASEgBAQAkJACAgBISAERJRVBoSAEBACQkAICAEhIASEQAwCIsoxoOiSEBACQkAICAEhIASEgBAQUVYZEAJCQAgIASEgBISAEBACMQj8Px/c3YQbHUejAAAAAElFTkSuQmCC;" parent="1" vertex="1">
          <mxGeometry x="597.5" y="575.4" width="714" height="119" as="geometry" />
        </mxCell>
        <mxCell id="I0Hr2agrUQy3wI3fVDXH-50" value="" style="endArrow=classic;html=1;rounded=0;" parent="1" edge="1">
          <mxGeometry width="50" height="50" relative="1" as="geometry">
            <mxPoint x="630" y="420" as="sourcePoint" />
            <mxPoint x="680" y="370" as="targetPoint" />
          </mxGeometry>
        </mxCell>
        <mxCell id="I0Hr2agrUQy3wI3fVDXH-51" value="" style="endArrow=classic;html=1;rounded=0;" parent="1" edge="1">
          <mxGeometry width="50" height="50" relative="1" as="geometry">
            <mxPoint x="830" y="570" as="sourcePoint" />
            <mxPoint x="1130" y="440" as="targetPoint" />
          </mxGeometry>
        </mxCell>
        <mxCell id="I0Hr2agrUQy3wI3fVDXH-52" value="" style="endArrow=classic;html=1;rounded=0;entryX=0.75;entryY=1;entryDx=0;entryDy=0;" parent="1" target="I0Hr2agrUQy3wI3fVDXH-20" edge="1">
          <mxGeometry width="50" height="50" relative="1" as="geometry">
            <mxPoint x="930" y="570" as="sourcePoint" />
            <mxPoint x="1140" y="450" as="targetPoint" />
          </mxGeometry>
        </mxCell>
        <mxCell id="I0Hr2agrUQy3wI3fVDXH-53" value="" style="endArrow=classic;html=1;rounded=0;" parent="1" edge="1">
          <mxGeometry width="50" height="50" relative="1" as="geometry">
            <mxPoint x="1040" y="570" as="sourcePoint" />
            <mxPoint x="270" y="290" as="targetPoint" />
            <Array as="points">
              <mxPoint x="1040" y="550" />
              <mxPoint x="660" y="540" />
              <mxPoint x="270" y="540" />
            </Array>
          </mxGeometry>
        </mxCell>
        <mxCell id="I0Hr2agrUQy3wI3fVDXH-54" value="" style="endArrow=classic;html=1;rounded=0;entryX=0.86;entryY=0.998;entryDx=0;entryDy=0;exitX=0.819;exitY=-0.003;exitDx=0;exitDy=0;exitPerimeter=0;entryPerimeter=0;" parent="1" source="I0Hr2agrUQy3wI3fVDXH-49" target="I0Hr2agrUQy3wI3fVDXH-20" edge="1">
          <mxGeometry width="50" height="50" relative="1" as="geometry">
            <mxPoint x="940" y="580" as="sourcePoint" />
            <mxPoint x="829" y="509" as="targetPoint" />
          </mxGeometry>
        </mxCell>
        <mxCell id="uKfqdcNd0xYP3ianlOdc-1" value="" style="endArrow=classic;html=1;rounded=0;exitX=1.001;exitY=0.567;exitDx=0;exitDy=0;exitPerimeter=0;entryX=0.5;entryY=0;entryDx=0;entryDy=0;entryPerimeter=0;" edge="1" parent="1" source="I0Hr2agrUQy3wI3fVDXH-20" target="I0Hr2agrUQy3wI3fVDXH-48">
          <mxGeometry width="50" height="50" relative="1" as="geometry">
            <mxPoint x="840" y="580" as="sourcePoint" />
            <mxPoint x="1120" y="440" as="targetPoint" />
            <Array as="points">
              <mxPoint x="1160" y="346" />
            </Array>
          </mxGeometry>
        </mxCell>
      </root>
    </mxGraphModel>
  </diagram>
</mxfile>
